<svg xmlns="http://www.w3.org/2000/svg" width="291.78094482421875" height="149.57972717285156" viewBox="-126.13719177246094 24.0324764251709 291.78094482421875 149.57972717285156"><title>Neo4j Graph Visualization</title><desc>Created using Neo4j (http://www.neo4j.com/)</desc><g class="layer relationships"><g class="relationship" transform="translate(136.6437427647957 100.32483919655938) rotate(180.50792367567158)"><path class="outline" fill="#A5ABB6" stroke="none" d="M 17.324116139070416,-18.03122292025696 L 18.031222920256962,-17.324116139070412 A 48.2383711220235 48.2383711220235 0 0 1 18.51822872942641,-17.80426585320636 L 17.821217766109363,-18.521326322773497 A 49.2383711220235 49.2383711220235 0 0 0 17.324116139070416,-18.03122292025696 Z M 83.23979856588673,-21.388719233844164 L 82.60819976188114,-20.6134238380248 A 48.2383711220235 48.2383711220235 0 0 1 83.13534851979976,-20.177726014786643 L 81.20776811783946,-17.878936378047648 L 88.8204544058508,-16.06317001633579 L 85.70545572241349,-23.242778863771967 L 83.77787532045319,-20.943989227032972 A 49.2383711220235 49.2383711220235 0 0 0 83.23979856588673,-21.388719233844164"/><text text-anchor="middle" pointer-events="none" font-size="8px" fill="#000000" x="50.00667669356141" y="-28.90605724336475" transform="rotate(180 50.00667669356141 -31.90605724336475)" font-family="sans-serif">CHEAPEST_FL…</text></g><g class="relationship" transform="translate(28.670950829785816 99.367641746981) rotate(180.5078954453714)"><path class="outline" fill="#A5ABB6" stroke="none" d="M 5.987513214418485,-24.277555179777966 L 6.953439040707552,-24.018736134675446 A 56.2852917850142 56.2852917850142 0 0 1 21.93369850431992,-49.659063372313014 L 21.233921417577776,-50.373424645668926 A 57.2852917850142 57.2852917850142 0 0 0 5.987513214418485,-24.277555179777966 Z M 96.85943969844018,-54.38001601339509 L 96.23906084420054,-53.595713726510574 A 56.2852917850142 56.2852917850142 0 0 1 113.8446740044334,-29.681765083458647 L 111.045160153338,-28.603469114104698 L 116.8272835747752,-23.329282092461696 L 117.57735913922727,-31.11949304259725 L 114.77784528813187,-30.0411970732433 A 57.2852917850142 57.2852917850142 0 0 0 96.85943969844018,-54.38001601339509"/><text text-anchor="middle" pointer-events="none" font-size="8px" fill="#000000" x="58.31662095054528" y="-63.15679698898414" transform="rotate(180 58.31662095054528 -66.15679698898414)" font-family="sans-serif">CHEAPEST_FLIGHT</text></g><g class="relationship" transform="translate(136.6437427647957 100.32483919655938) rotate(180.50792367567158)"><path class="outline" fill="#A5ABB6" stroke="none" d="M 24.018736134675446,-6.953439040707552 L 24.277555179777966,-5.987513214418485 A 107.65570618351602 107.65570618351602 0 0 1 26.250443334663686,-6.496187678808042 L 26.009950193731285,-7.46683851673302 A 108.65570618351602 108.65570618351602 0 0 0 24.018736134675446,-6.953439040707552 Z M 74.92899507023034,-8.239275418088113 L 74.71926754080167,-7.2615155480792595 A 107.65570618351602 107.65570618351602 0 0 1 76.70723219374274,-6.815383369160028 L 76.02265176199583,-3.8945359523186025 L 83.63663957166388,-5.704836931224164 L 77.62000610273861,-10.709846591615262 L 76.9354256709917,-7.788999174773837 A 108.65570618351602 108.65570618351602 0 0 0 74.92899507023034,-8.239275418088113"/><text text-anchor="middle" pointer-events="none" font-size="8px" fill="#000000" x="50.43332505444319" y="-7.142311875659544" transform="rotate(180 50.43332505444319 -10.142311875659544)" font-family="sans-serif">BUSINES…</text></g><g class="relationship" transform="translate(28.670950829785816 99.367641746981) rotate(180.5078954453714)"><path class="outline" fill="#A5ABB6" stroke="none" d="M 12.698856172145504,-21.540405101092272 L 13.549972844582506,-21.015428520757713 A 56.12730277589797 56.12730277589797 0 0 1 22.242679357054023,-31.838495840641265 L 21.546437515270824,-32.55630312518937 A 57.12730277589797 57.12730277589797 0 0 0 12.698856172145504,-21.540405101092272 Z M 97.16174130217325,-36.035408530249256 L 96.53435503423229,-35.256700323795066 A 56.12730277589797 56.12730277589797 0 0 1 106.18418247350496,-25.27758397439036 L 103.78624113807874,-23.474842353454537 L 110.79023647825959,-19.98284446188515 L 109.3814375874066,-27.68123946897146 L 106.98349625198037,-25.878497848035636 A 57.12730277589797 57.12730277589797 0 0 0 97.16174130217325,-36.035408530249256"/><text text-anchor="middle" pointer-events="none" font-size="8px" fill="#000000" x="58.718153379366086" y="-45.117367524045484" transform="rotate(180 58.718153379366086 -48.117367524045484)" font-family="sans-serif">CHEAPEST_FLIGHT</text></g><g class="relationship" transform="translate(28.670950829785816 99.367641746981) rotate(360.5079236756716)"><path class="outline" fill="#A5ABB6" stroke="none" d="M 24.018736134675446,-6.953439040707552 L 24.277555179777966,-5.987513214418485 A 107.65570618351602 107.65570618351602 0 0 1 24.749207334302298,-6.112746989646183 L 24.494769405363936,-7.079836096356402 A 108.65570618351602 108.65570618351602 0 0 0 24.018736134675446,-6.953439040707552 Z M 76.45563906663148,-7.900303733330787 L 76.23186124891124,-6.925663549316013 A 107.65570618351602 107.65570618351602 0 0 1 76.70723219374274,-6.815383369160028 L 76.02265176199583,-3.8945359523186025 L 83.63663957166388,-5.704836931224164 L 77.62000610273861,-10.709846591615262 L 76.9354256709917,-7.788999174773837 A 108.65570618351602 108.65570618351602 0 0 0 76.45563906663148,-7.900303733330787"/><text text-anchor="middle" pointer-events="none" font-size="8px" fill="#000000" x="50.43332505444319" y="-7.142311875659544" font-family="sans-serif">CHEAPES…</text></g><g class="relationship" transform="translate(28.670950829785816 99.367641746981) rotate(180.5078954453714)"><path class="outline" fill="#A5ABB6" stroke="none" d="M 18.343228848217933,-16.993409175968942 L 19.008024713831873,-16.246384104727944 A 63.647855666432406 63.647855666432406 0 0 1 21.559047280895726,-18.399418630458484 L 20.93433167470849,-19.18027099255142 A 64.6478556664324 64.6478556664324 0 0 0 18.343228848217933,-16.993409175968942 Z M 98.02484056283372,-21.91790818183658 L 97.45708801840055,-21.094708905664845 A 63.647855666432406 63.647855666432406 0 0 1 100.15440896326353,-19.128053489212782 L 98.32401487344306,-16.751152675979238 L 106.00557654244523,-15.253284081837272 L 102.5949344163575,-22.297254573524175 L 100.76454032653703,-19.92035376029063 A 64.6478556664324 64.6478556664324 0 0 0 98.02484056283372,-21.91790818183658"/><text text-anchor="middle" pointer-events="none" font-size="8px" fill="#000000" x="59.044273214848126" y="-29.807285603939526" transform="rotate(180 59.044273214848126 -32.807285603939526)" font-family="sans-serif">CHEAPEST_FLIGHT</text></g><g class="relationship" transform="translate(28.670950829785816 99.367641746981) rotate(180.5078954453714)"><path class="outline" fill="#A5ABB6" stroke="none" d="M 22.446385545045896,-11.018610437035811 L 22.869003806786598,-10.112302649999162 A 90.98483357274938 90.98483357274938 0 0 1 24.049867634814987,-10.652722401740405 L 23.640228061737645,-11.564969857296745 A 91.98483357274938 91.98483357274938 0 0 0 22.446385545045896,-11.018610437035811 Z M 95.2088553286854,-13.167027114498168 L 94.84044677701024,-12.237363121943545 A 90.98483357274938 90.98483357274938 0 0 1 96.04431015062379,-11.75032527321945 L 94.89939007644051,-8.977392164806599 L 102.70530741595098,-9.541000618193953 L 97.5708702495348,-15.44756941776992 L 96.42595017535153,-12.674636309357068 A 91.98483357274938 91.98483357274938 0 0 0 95.2088553286854,-13.167027114498168"/><text text-anchor="middle" pointer-events="none" font-size="8px" fill="#000000" x="59.27348916689786" y="-16.113960862407865" transform="rotate(180 59.27348916689786 -19.113960862407865)" font-family="sans-serif">CHEAPEST_FLI…</text></g><g class="relationship" transform="translate(28.670950829785816 99.367641746981) rotate(180.5078954453714)"><path class="outline" fill="#A5ABB6" stroke="none" d="M 24.663575034869986,-4.118017301971641 L 24.808506894177235,-3.1285756633906963 A 251.92769413443855 251.92769413443855 0 0 1 26.346050222471995,-3.3489532124714003 L 26.207221476733018,-4.339269616130622 A 252.92769413443855 252.92769413443855 0 0 0 24.663575034869986,-4.118017301971641 Z M 92.601808029743,-4.846722191802286 L 92.47813255750687,-3.8543994733446425 A 251.92769413443855 251.92769413443855 0 0 1 94.01886475076184,-3.657549126150986 L 93.62949101977483,-0.6829250998886316 L 101.02454976720517,-3.244781091558368 L 94.53802972541118,-7.623714494500792 L 94.14865599442417,-4.6490904682384375 A 252.92769413443855 252.92769413443855 0 0 0 92.601808029743,-4.846722191802286"/><text text-anchor="middle" pointer-events="none" font-size="8px" fill="#000000" x="59.39161224747424" y="-3.2811468302856213" transform="rotate(180 59.39161224747424 -6.281146830285621)" font-family="sans-serif">CHEAPEST_F…</text></g><g class="relationship" transform="translate(28.670950829785816 99.367641746981) rotate(180.5078954453714)"><path class="outline" fill="#A5ABB6" stroke="none" d="M 24.663575034869986,4.118017301971641 L 24.808506894177235,3.1285756633906963 A 251.92769413443855 251.92769413443855 0 0 0 25.464086816223727,3.223723727472219 L 25.32175721120337,4.213543046103013 A 252.92769413443855 252.92769413443855 0 0 1 24.663575034869986,4.118017301971641 Z M 93.48909059159851,4.7345446924184955 L 93.3619070710844,3.742665490040679 A 251.92769413443855 251.92769413443855 0 0 0 94.01886475076184,3.657549126150986 L 93.62949101977483,0.6829250998886316 L 101.02454976720517,3.244781091558368 L 94.53802972541118,7.623714494500792 L 94.14865599442417,4.6490904682384375 A 252.92769413443855 252.92769413443855 0 0 1 93.48909059159851,4.7345446924184955"/><text text-anchor="middle" pointer-events="none" font-size="8px" fill="#000000" x="59.39161224747424" y="9.281146830285621" transform="rotate(180 59.39161224747424 6.281146830285621)" font-family="sans-serif">BUSINESS_FL…</text></g><g class="relationship" transform="translate(28.670950829785816 99.367641746981) rotate(180.5078954453714)"><path class="outline" fill="#A5ABB6" stroke="none" d="M 22.446385545045896,11.018610437035811 L 22.869003806786598,10.112302649999162 A 90.98483357274938 90.98483357274938 0 0 0 25.262276439603674,11.18657592642684 L 24.865962261069363,12.104690882133738 A 91.98483357274938 91.98483357274938 0 0 1 22.446385545045896,11.018610437035811 Z M 93.96019779512412,13.65135910388453 L 93.6053638457509,12.716429765179072 A 90.98483357274938 90.98483357274938 0 0 0 96.04431015062379,11.75032527321945 L 94.89939007644051,8.977392164806599 L 102.70530741595098,9.541000618193953 L 97.5708702495348,15.44756941776992 L 96.42595017535153,12.674636309357068 A 91.98483357274938 91.98483357274938 0 0 1 93.96019779512412,13.65135910388453"/><text text-anchor="middle" pointer-events="none" font-size="8px" fill="#000000" x="59.27348916689788" y="22.113960862407865" transform="rotate(180 59.27348916689788 19.113960862407865)" font-family="sans-serif">BUSINESS_FLI…</text></g><g class="relationship" transform="translate(28.670950829785816 99.367641746981) rotate(180.5078954453714)"><path class="outline" fill="#A5ABB6" stroke="none" d="M 18.343228848217933,16.993409175968942 L 19.008024713831873,16.246384104727944 A 63.647855666432406 63.647855666432406 0 0 0 22.59955771708725,19.214299398180927 L 21.991190036926696,20.007954717407145 A 64.6478556664324 64.6478556664324 0 0 1 18.343228848217933,16.993409175968942 Z M 96.91193310680757,22.668539210040798 L 96.36139547916558,21.833728859990956 A 63.647855666432406 63.647855666432406 0 0 0 100.15440896326353,19.128053489212782 L 98.32401487344306,16.751152675979238 L 106.00557654244523,15.253284081837272 L 102.5949344163575,22.297254573524175 L 100.76454032653703,19.92035376029063 A 64.6478556664324 64.6478556664324 0 0 1 96.91193310680757,22.668539210040798"/><text text-anchor="middle" pointer-events="none" font-size="8px" fill="#000000" x="59.04427321484814" y="35.807285603939526" transform="rotate(180 59.04427321484814 32.807285603939526)" font-family="sans-serif">BUSINESS_FLIGHT</text></g><g class="relationship" transform="translate(28.670950829785816 99.367641746981) rotate(180.5078954453714)"><path class="outline" fill="#A5ABB6" stroke="none" d="M 12.698856172145504,21.540405101092272 L 13.549972844582506,21.015428520757713 A 56.12730277589797 56.12730277589797 0 0 0 23.201102175143596,32.74649244814507 L 22.52193620857065,33.48047718221591 A 57.12730277589797 57.12730277589797 0 0 1 12.698856172145504,21.540405101092272 Z M 96.10550014824199,36.8661010203155 L 95.49660313329576,36.072851737183406 A 56.12730277589797 56.12730277589797 0 0 0 106.18418247350496,25.27758397439036 L 103.78624113807874,23.474842353454537 L 110.79023647825959,19.98284446188515 L 109.3814375874066,27.68123946897146 L 106.98349625198037,25.878497848035636 A 57.12730277589797 57.12730277589797 0 0 1 96.10550014824199,36.8661010203155"/><text text-anchor="middle" pointer-events="none" font-size="8px" fill="#000000" x="58.71815337936609" y="51.11736752404549" transform="rotate(180 58.71815337936609 48.11736752404549)" font-family="sans-serif">BUSINESS_FLIGHT</text></g><g class="relationship" transform="translate(28.670950829785816 99.367641746981) rotate(180.5078954453714)"><path class="outline" fill="#A5ABB6" stroke="none" d="M 5.987513214418485,24.277555179777966 L 6.953439040707552,24.018736134675446 A 56.2852917850142 56.2852917850142 0 0 0 22.887620868082642,50.571834488624276 L 22.204791767812814,51.30241262943106 A 57.2852917850142 57.2852917850142 0 0 1 5.987513214418485,24.277555179777966 Z M 95.7958453358485,55.20121936385286 L 95.19403310367622,54.4025817506591 A 56.2852917850142 56.2852917850142 0 0 0 113.8446740044334,29.681765083458647 L 111.045160153338,28.603469114104698 L 116.8272835747752,23.329282092461696 L 117.57735913922727,31.11949304259725 L 114.77784528813187,30.0411970732433 A 57.2852917850142 57.2852917850142 0 0 1 95.7958453358485,55.20121936385286"/><text text-anchor="middle" pointer-events="none" font-size="8px" fill="#000000" x="58.316620950545285" y="69.15679698898414" transform="rotate(180 58.316620950545285 66.15679698898414)" font-family="sans-serif">BUSINESS_FLIGHT</text></g><g class="relationship" transform="translate(28.670950829785816 99.367641746981) rotate(360.5079236756716)"><path class="outline" fill="#A5ABB6" stroke="none" d="M 17.324116139070416,-18.03122292025696 L 18.031222920256962,-17.324116139070412 A 48.2383711220235 48.2383711220235 0 0 1 18.675206867483425,-17.95616504095834 L 17.98145012138818,-18.676374439152603 A 49.2383711220235 49.2383711220235 0 0 0 17.324116139070416,-18.03122292025696 Z M 83.066614793703,-21.529153229454614 L 82.43853324195894,-20.751005708505794 A 48.2383711220235 48.2383711220235 0 0 1 83.13534851979976,-20.177726014786643 L 81.20776811783946,-17.878936378047648 L 88.8204544058508,-16.06317001633579 L 85.70545572241349,-23.242778863771967 L 83.77787532045319,-20.943989227032972 A 49.2383711220235 49.2383711220235 0 0 0 83.066614793703,-21.529153229454614"/><text text-anchor="middle" pointer-events="none" font-size="8px" fill="#000000" x="50.00667669356141" y="-28.90605724336475" font-family="sans-serif">BUSINESS_FLI…</text></g></g><g class="layer nodes"><g class="node" transform="translate(136.6437427647957,100.32483919655938)"><circle class="outline" cx="0" cy="0" r="25" fill="#ECB5C9" stroke="#da7298" stroke-width="2px"/><text text-anchor="middle" pointer-events="none" font-family="sans-serif" dy="1.5625" font-size="25" fill="#604A0E"/><text text-anchor="middle" pointer-events="none" y="5" font-size="10px" fill="#604A0E" font-family="sans-serif"> MSN</text></g><g class="node" transform="translate(28.670950829785816,99.367641746981)"><circle class="outline" cx="0" cy="0" r="25" fill="#ECB5C9" stroke="#da7298" stroke-width="2px"/><text text-anchor="middle" pointer-events="none" font-family="sans-serif" dy="1.5625" font-size="25" fill="#604A0E"/><text text-anchor="middle" pointer-events="none" y="5" font-size="10px" fill="#604A0E" font-family="sans-serif"> ORD</text></g><g class="node" transform="translate(-97.13718942441668,98.25239284604173)"><circle class="outline" cx="0" cy="0" r="25" fill="#ECB5C9" stroke="#da7298" stroke-width="2px"/><text text-anchor="middle" pointer-events="none" font-family="sans-serif" dy="1.5625" font-size="25" fill="#604A0E"/><text text-anchor="middle" pointer-events="none" y="5" font-size="10px" fill="#604A0E" font-family="sans-serif"> GRR</text></g></g></svg>