<svg xmlns="http://www.w3.org/2000/svg" width="484.015380859375" height="69.98596954345703" viewBox="-105.16899108886719 32.35070037841797 484.015380859375 69.98596954345703"><title>Neo4j Graph Visualization</title><desc>Created using Neo4j (http://www.neo4j.com/)</desc><g class="layer relationships"><g class="relationship" transform="translate(349.84639620796094 66.70336554809056) rotate(539.5096337660317)"><path class="outline" fill="#A5ABB6" stroke="none" d="M 21.40063509461097,12.933012701892217 L 21.90063509461097,12.06698729810778 A 104.03473646921611 104.03473646921611 0 0 0 41.42948617198505,20.802052288338317 L 41.1172008886283,21.752040657634907 A 105.03473646921611 105.03473646921611 0 0 1 21.40063509461097,12.933012701892217 Z M 102.22659121357813,23.118271602609127 L 101.95707477705471,22.15527581318753 A 104.03473646921611 104.03473646921611 0 0 0 121.85679988510115,14.301720859538072 L 120.47441170833866,11.639202703966685 L 128.29974027756148,11.519901473020813 L 123.69998412078448,17.85174506696659 L 122.31759594402199,15.189226911395203 A 105.03473646921611 105.03473646921611 0 0 1 102.22659121357813,23.118271602609127"/><text text-anchor="middle" pointer-events="none" font-size="8px" fill="#000000" x="71.58148988875656" y="29.47888349769846" transform="rotate(180 71.58148988875656 26.47888349769846)" font-family="sans-serif">PublicTransport</text></g><g class="relationship" transform="translate(199.36451605156438 67.99129696676975) rotate(180.4384047367301)"><path class="outline" fill="#A5ABB6" stroke="none" d="M 25 0.5 L 53.8021383858721 0.5 L 53.8021383858721 -0.5 L 25 -0.5 Z M 73.1380758858721 0.5 L 101.9402142717442 0.5 L 101.9402142717442 3.5 L 108.9402142717442 0 L 101.9402142717442 -3.5 L 101.9402142717442 -0.5 L 73.1380758858721 -0.5 Z"/><text text-anchor="middle" pointer-events="none" font-size="8px" fill="#000000" x="63.4701071358721" y="3" transform="rotate(180 63.4701071358721 0)" font-family="sans-serif">trek</text></g><g class="relationship" transform="translate(65.42822266464917 66.96644920494313) rotate(539.5084827779427)"><path class="outline" fill="#A5ABB6" stroke="none" d="M 25 0.5 L 57.633244890018446 0.5 L 57.633244890018446 -0.5 L 25 -0.5 Z M 76.96918239001845 0.5 L 109.60242728003689 0.5 L 109.60242728003689 3.5 L 116.60242728003689 0 L 109.60242728003689 -3.5 L 109.60242728003689 -0.5 L 76.96918239001845 -0.5 Z"/><text text-anchor="middle" pointer-events="none" font-size="8px" fill="#000000" x="67.30121364001845" y="3" transform="rotate(180 67.30121364001845 0)" font-family="sans-serif">trek</text></g><g class="relationship" transform="translate(349.84639620796094 66.70336554809056) rotate(539.5096337660317)"><path class="outline" fill="#A5ABB6" stroke="none" d="M 25 0.5 L 62.07572703699486 0.5 L 62.07572703699486 -0.5 L 25 -0.5 Z M 81.41166453699486 0.5 L 118.48739157398973 0.5 L 118.48739157398973 3.5 L 125.48739157398973 0 L 118.48739157398973 -3.5 L 118.48739157398973 -0.5 L 81.41166453699486 -0.5 Z"/><text text-anchor="middle" pointer-events="none" font-size="8px" fill="#000000" x="71.74369578699486" y="3" transform="rotate(180 71.74369578699486 0)" font-family="sans-serif">trek</text></g><g class="relationship" transform="translate(349.84639620796094 66.70336554809056) rotate(539.5096337660317)"><path class="outline" fill="#A5ABB6" stroke="none" d="M 21.40063509461097,-12.933012701892217 L 21.90063509461097,-12.06698729810778 A 104.03473646921611 104.03473646921611 0 0 1 60.67528021340491,-25.15871488464296 L 60.54798885317993,-26.150580253335747 A 105.03473646921611 105.03473646921611 0 0 0 21.40063509461097,-12.933012701892217 Z M 82.6186389374204,-26.644016776928027 L 82.53580314517988,-25.64745356692883 A 104.03473646921611 104.03473646921611 0 0 1 121.85679988510115,-14.301720859538072 L 120.47441170833866,-11.639202703966685 L 128.29974027756148,-11.519901473020813 L 123.69998412078448,-17.85174506696659 L 122.31759594402199,-15.189226911395203 A 105.03473646921611 105.03473646921611 0 0 0 82.6186389374204,-26.644016776928027"/><text text-anchor="middle" pointer-events="none" font-size="8px" fill="#000000" x="71.58148988875658" y="-23.47888349769846" transform="rotate(180 71.58148988875658 -26.47888349769846)" font-family="sans-serif">road</text></g></g><g class="layer nodes"><g class="node" transform="translate(349.84639620796094,66.70336554809056)"><circle class="outline" cx="0" cy="0" r="25" fill="#8DCC93" stroke="#5db665" stroke-width="2px"/><text text-anchor="middle" pointer-events="none" font-family="sans-serif" dy="1.5625" font-size="25" fill="#604A0E"/><text text-anchor="middle" pointer-events="none" y="5" font-size="10px" fill="#604A0E" font-family="sans-serif"> Darjeeling</text></g><g class="node" transform="translate(199.36451605156438,67.99129696676975)"><circle class="outline" cx="0" cy="0" r="25" fill="#8DCC93" stroke="#5db665" stroke-width="2px"/><text text-anchor="middle" pointer-events="none" font-family="sans-serif" dy="1.5625" font-size="25" fill="#604A0E"/><text text-anchor="middle" pointer-events="none" y="5" font-size="10px" fill="#604A0E" font-family="sans-serif"> Rimbik</text></g><g class="node" transform="translate(65.42822266464917,66.96644920494313)"><circle class="outline" cx="0" cy="0" r="25" fill="#D9C8AE" stroke="#c0a378" stroke-width="2px"/><text text-anchor="middle" pointer-events="none" font-family="sans-serif" dy="1.5625" font-size="25" fill="#604A0E"/><text text-anchor="middle" pointer-events="none" y="5" font-size="10px" fill="#604A0E" font-family="sans-serif"> BhikeBh…</text></g><g class="node" transform="translate(-76.1689942251318,68.18118401817222)"><circle class="outline" cx="0" cy="0" r="25" fill="#F16667" stroke="#eb2728" stroke-width="2px"/><text text-anchor="middle" pointer-events="none" font-family="sans-serif" dy="1.5625" font-size="25" fill="#FFFFFF"/><text text-anchor="middle" pointer-events="none" y="5" font-size="10px" fill="#FFFFFF" font-family="sans-serif"> Sandak…</text></g></g></svg>