<svg xmlns="http://www.w3.org/2000/svg" width="227.22271728515625" height="189.71070861816406" viewBox="-10.945047378540039 2.1212520599365234 227.22271728515625 189.71070861816406"><title>Neo4j Graph Visualization</title><desc>Created using Neo4j (http://www.neo4j.com/)</desc><g class="layer relationships"><g class="relationship" transform="translate(18.054952551900094 53.74351029693039) rotate(387.01217778951457)"><path class="outline" fill="#A5ABB6" stroke="none" d="M 25 0.5 L 26.872440544233996 0.5 L 26.872440544233996 -0.5 L 25 -0.5 Z M 62.208378044233996 0.5 L 64.08081858846799 0.5 L 64.08081858846799 3.5 L 71.08081858846799 0 L 64.08081858846799 -3.5 L 64.08081858846799 -0.5 L 62.208378044233996 -0.5 Z"/><text text-anchor="middle" pointer-events="none" font-size="8px" fill="#000000" x="44.540409294233996" y="3" font-family="sans-serif">ACTE…</text></g><g class="relationship" transform="translate(18.054952551900094 53.74351029693039) rotate(349.26393482899994)"><path class="outline" fill="#A5ABB6" stroke="none" d="M 25 0.5 L 34.43820904498555 0.5 L 34.43820904498555 -0.5 L 25 -0.5 Z M 80.00070904498554 0.5 L 89.4389180899711 0.5 L 89.4389180899711 3.5 L 96.4389180899711 0 L 89.4389180899711 -3.5 L 89.4389180899711 -0.5 L 80.00070904498554 -0.5 Z"/><text text-anchor="middle" pointer-events="none" font-size="8px" fill="#000000" x="57.21945904498555" y="3" font-family="sans-serif">ACTED_IN</text></g><g class="relationship" transform="translate(18.054952551900094 53.74351029693039) rotate(425.1663939837817)"><path class="outline" fill="#A5ABB6" stroke="none" d="M 25 0.5 L 33.82049751776138 0.5 L 33.82049751776138 -0.5 L 25 -0.5 Z M 79.38299751776138 0.5 L 88.20349503552276 0.5 L 88.20349503552276 3.5 L 95.20349503552276 0 L 88.20349503552276 -3.5 L 88.20349503552276 -0.5 L 79.38299751776138 -0.5 Z"/><text text-anchor="middle" pointer-events="none" font-size="8px" fill="#000000" x="56.60174751776138" y="3" font-family="sans-serif">ACTED_IN</text></g><g class="relationship" transform="translate(187.27764136835887 142.28747108193951) rotate(208.2359375913785)"><path class="outline" fill="#A5ABB6" stroke="none" d="M 25 0.5 L 26.29098270411081 0.5 L 26.29098270411081 -0.5 L 25 -0.5 Z M 61.62692020411081 0.5 L 62.91790290822162 0.5 L 62.91790290822162 3.5 L 69.91790290822162 0 L 62.91790290822162 -3.5 L 62.91790290822162 -0.5 L 61.62692020411081 -0.5 Z"/><text text-anchor="middle" pointer-events="none" font-size="8px" fill="#000000" x="43.95895145411081" y="3" transform="rotate(180 43.95895145411081 0)" font-family="sans-serif">ACTE…</text></g><g class="relationship" transform="translate(187.27764136835887 142.28747108193951) rotate(245.8217054243288)"><path class="outline" fill="#A5ABB6" stroke="none" d="M 25 0.5 L 34.64674806241795 0.5 L 34.64674806241795 -0.5 L 25 -0.5 Z M 80.20924806241794 0.5 L 89.8559961248359 0.5 L 89.8559961248359 3.5 L 96.8559961248359 0 L 89.8559961248359 -3.5 L 89.8559961248359 -0.5 L 80.20924806241794 -0.5 Z"/><text text-anchor="middle" pointer-events="none" font-size="8px" fill="#000000" x="57.42799806241795" y="3" transform="rotate(180 57.42799806241795 0)" font-family="sans-serif">ACTED_IN</text></g><g class="relationship" transform="translate(187.27764136835887 142.28747108193951) rotate(530.1837554612215)"><path class="outline" fill="#A5ABB6" stroke="none" d="M 25 0.5 L 33.970403029337824 0.5 L 33.970403029337824 -0.5 L 25 -0.5 Z M 79.53290302933783 0.5 L 88.50330605867565 0.5 L 88.50330605867565 3.5 L 95.50330605867565 0 L 88.50330605867565 -3.5 L 88.50330605867565 -0.5 L 79.53290302933783 -0.5 Z"/><text text-anchor="middle" pointer-events="none" font-size="8px" fill="#000000" x="56.751653029337824" y="3" transform="rotate(180 56.751653029337824 0)" font-family="sans-serif">ACTED_IN</text></g></g><g class="layer nodes"><g class="node" transform="translate(18.054952551900094,53.74351029693039)"><circle class="outline" cx="0" cy="0" r="25" fill="#F79767" stroke="#f36924" stroke-width="2px"/><text text-anchor="middle" pointer-events="none" font-family="sans-serif" dy="1.5625" font-size="25" fill="#FFFFFF"/><text text-anchor="middle" pointer-events="none" font-family="sans-serif" dy="1.5625" font-size="25" fill="#FFFFFF"/><text text-anchor="middle" pointer-events="none" y="0" font-size="10px" fill="#FFFFFF" font-family="sans-serif"> Keanu</text><text text-anchor="middle" pointer-events="none" y="10" font-size="10px" fill="#FFFFFF" font-family="sans-serif"> Reeves</text></g><g class="node" transform="translate(187.27764136835887,142.28747108193951)"><circle class="outline" cx="0" cy="0" r="25" fill="#F79767" stroke="#f36924" stroke-width="2px"/><text text-anchor="middle" pointer-events="none" font-family="sans-serif" dy="1.5625" font-size="25" fill="#FFFFFF"/><text text-anchor="middle" pointer-events="none" font-family="sans-serif" dy="1.5625" font-size="25" fill="#FFFFFF"/><text text-anchor="middle" pointer-events="none" y="0" font-size="10px" fill="#FFFFFF" font-family="sans-serif"> Hugo</text><text text-anchor="middle" pointer-events="none" y="10" font-size="10px" fill="#FFFFFF" font-family="sans-serif"> Weaving</text></g><g class="node" transform="translate(103.65431577216461,97.38148363341024)"><circle class="outline" cx="0" cy="0" r="25" fill="#57C7E3" stroke="#23b3d7" stroke-width="2px"/><text text-anchor="middle" pointer-events="none" font-family="sans-serif" dy="1.5625" font-size="25" fill="#FFFFFF"/><text text-anchor="middle" pointer-events="none" font-family="sans-serif" dy="1.5625" font-size="25" fill="#FFFFFF"/><text text-anchor="middle" pointer-events="none" font-family="sans-serif" dy="1.5625" font-size="25" fill="#FFFFFF"/><text text-anchor="middle" pointer-events="none" y="-5" font-size="10px" fill="#FFFFFF" font-family="sans-serif"> The</text><text text-anchor="middle" pointer-events="none" y="5" font-size="10px" fill="#FFFFFF" font-family="sans-serif"> Matrix</text><text text-anchor="middle" pointer-events="none" y="15" font-size="10px" fill="#FFFFFF" font-family="sans-serif"> Revol…</text></g><g class="node" transform="translate(137.36817138659944,31.12125050340282)"><circle class="outline" cx="0" cy="0" r="25" fill="#57C7E3" stroke="#23b3d7" stroke-width="2px"/><text text-anchor="middle" pointer-events="none" font-family="sans-serif" dy="1.5625" font-size="25" fill="#FFFFFF"/><text text-anchor="middle" pointer-events="none" font-family="sans-serif" dy="1.5625" font-size="25" fill="#FFFFFF"/><text text-anchor="middle" pointer-events="none" font-family="sans-serif" dy="1.5625" font-size="25" fill="#FFFFFF"/><text text-anchor="middle" pointer-events="none" y="-5" font-size="10px" fill="#FFFFFF" font-family="sans-serif"> The</text><text text-anchor="middle" pointer-events="none" y="5" font-size="10px" fill="#FFFFFF" font-family="sans-serif"> Matrix</text><text text-anchor="middle" pointer-events="none" y="15" font-size="10px" fill="#FFFFFF" font-family="sans-serif"> Reloa…</text></g><g class="node" transform="translate(68.53855179548296,162.83194426757765)"><circle class="outline" cx="0" cy="0" r="25" fill="#57C7E3" stroke="#23b3d7" stroke-width="2px"/><text text-anchor="middle" pointer-events="none" font-family="sans-serif" dy="1.5625" font-size="25" fill="#FFFFFF"/><text text-anchor="middle" pointer-events="none" font-family="sans-serif" dy="1.5625" font-size="25" fill="#FFFFFF"/><text text-anchor="middle" pointer-events="none" y="0" font-size="10px" fill="#FFFFFF" font-family="sans-serif"> The</text><text text-anchor="middle" pointer-events="none" y="10" font-size="10px" fill="#FFFFFF" font-family="sans-serif"> Matrix</text></g></g></svg>