<svg xmlns="http://www.w3.org/2000/svg" width="459.80047607421875" height="293.21539306640625" viewBox="-148.5814666748047 -47.159576416015625 459.80047607421875 293.21539306640625"><title>Neo4j Graph Visualization</title><desc>Created using Neo4j (http://www.neo4j.com/)</desc><g class="layer relationships"><g class="relationship" transform="translate(206.5710318914922 217.05581647731356) rotate(286.5223449955631)"><path class="outline" fill="#A5ABB6" stroke="none" d="M 24.018736134675446,-6.953439040707552 L 24.277555179777966,-5.987513214418485 A 112.56704464320283 112.56704464320283 0 0 1 42.06613525544442,-9.249890977767762 L 41.96534274583503,-10.244798445830313 A 113.56704464320283 113.56704464320283 0 0 0 24.018736134675446,-6.953439040707552 Z M 61.360811867247484,-10.544626665049137 L 61.290820068941244,-9.547079098178344 A 112.56704464320283 112.56704464320283 0 0 1 79.17174024708677,-6.836104483398417 L 78.48522430955663,-3.915711381859328 L 86.10041014026633,-5.7209661460845815 L 80.0870948304603,-10.729961952117202 L 79.40057889293016,-7.809568850578113 A 113.56704464320283 113.56704464320283 0 0 0 61.360811867247484,-10.544626665049137"/><text text-anchor="middle" pointer-events="none" font-size="8px" fill="#000000" x="51.664392495451075" y="-7.309634820076383" font-family="sans-serif">trek</text></g><g class="relationship" transform="translate(237.97813373837366 111.17886341474957) rotate(289.77369520111733)"><path class="outline" fill="#A5ABB6" stroke="none" d="M 21.40063509461097,-12.933012701892217 L 21.90063509461097,-12.06698729810778 A 83.91933243225158 83.91933243225158 0 0 1 52.14195547090232,-22.487853846846463 L 52.002317255246886,-23.478056436586854 A 84.91933243225158 84.91933243225158 0 0 0 21.40063509461097,-12.933012701892217 Z M 71.40394273540002,-23.974320080083487 L 71.31510970752994,-22.97827354845988 A 83.91933243225158 83.91933243225158 0 0 1 102.04963555562186,-14.117075061737847 L 100.6844197058992,-11.445711049914298 L 108.51035422483059,-11.376798747688882 L 103.86992335525208,-17.678893744169248 L 102.50470750552942,-15.007529732345699 A 84.91933243225158 84.91933243225158 0 0 0 71.40394273540002,-23.974320080083487"/><text text-anchor="middle" pointer-events="none" font-size="8px" fill="#000000" x="61.70169107227926" y="-20.782443529830857" font-family="sans-serif">trek</text></g><g class="relationship" transform="translate(282.2189812704883 -11.88205816612276) rotate(525.1819244286098)"><path class="outline" fill="#A5ABB6" stroke="none" d="M 21.40063509461097,12.933012701892217 L 21.90063509461097,12.06698729810778 A 88.62848010640404 88.62848010640404 0 0 0 54.44331247310156,23.155729014627553 L 54.31049328607975,24.146869299127616 A 89.62848010640404 89.62848010640404 0 0 1 21.40063509461097,12.933012701892217 Z M 73.7108552911704,24.626943015203807 L 73.62722138223367,23.630446467655375 A 88.62848010640404 88.62848010640404 0 0 0 106.67852788030442,14.164867637663148 L 105.30886704383586,11.495779929654239 L 113.13467600506996,11.413840303904665 L 108.50474232892917,17.723651248341692 L 107.13508149246061,15.054563540332785 A 89.62848010640404 89.62848010640404 0 0 1 73.7108552911704,24.626943015203807"/><text text-anchor="middle" pointer-events="none" font-size="8px" fill="#000000" x="64.01001185340023" y="27.41367596925204" transform="rotate(180 64.01001185340023 24.41367596925204)" font-family="sans-serif">trek</text></g><g class="relationship" transform="translate(151.3441764838721 22.740730874227594) rotate(198.70077485986144)"><path class="outline" fill="#A5ABB6" stroke="none" d="M 25 0.5 L 50.61402388745117 0.5 L 50.61402388745117 -0.5 L 25 -0.5 Z M 69.94996138745117 0.5 L 95.56398527490234 0.5 L 95.56398527490234 3.5 L 102.56398527490234 0 L 95.56398527490234 -3.5 L 95.56398527490234 -0.5 L 69.94996138745117 -0.5 Z"/><text text-anchor="middle" pointer-events="none" font-size="8px" fill="#000000" x="60.28199263745117" y="3" transform="rotate(180 60.28199263745117 0)" font-family="sans-serif">trek</text></g><g class="relationship" transform="translate(206.5710318914922 217.05581647731356) rotate(286.5223449955631)"><path class="outline" fill="#A5ABB6" stroke="none" d="M 24.018736134675446,6.953439040707552 L 24.277555179777966,5.987513214418485 A 112.56704464320283 112.56704464320283 0 0 0 40.74176931547127,9.107800865612163 L 40.62921167563064,10.101446062708945 A 113.56704464320283 113.56704464320283 0 0 1 24.018736134675446,6.953439040707552 Z M 62.70073551440331,10.442642537339182 L 62.61894519081744,9.44599297858359 A 112.56704464320283 112.56704464320283 0 0 0 79.17174024708677,6.836104483398417 L 78.48522430955663,3.915711381859328 L 86.10041014026633,5.7209661460845815 L 80.0870948304603,10.729961952117202 L 79.40057889293016,7.809568850578113 A 113.56704464320283 113.56704464320283 0 0 1 62.70073551440331,10.442642537339182"/><text text-anchor="middle" pointer-events="none" font-size="8px" fill="#000000" x="51.66439249545108" y="13.309634820076383" font-family="sans-serif">road</text></g><g class="relationship" transform="translate(237.97813373837366 111.17886341474957) rotate(289.77369520111733)"><path class="outline" fill="#A5ABB6" stroke="none" d="M 25 0.5 L 50.88000112001342 0.5 L 50.88000112001342 -0.5 L 25 -0.5 Z M 72.89171987001342 0.5 L 98.77172099002684 0.5 L 98.77172099002684 3.5 L 105.77172099002684 0 L 98.77172099002684 -3.5 L 98.77172099002684 -0.5 L 72.89171987001342 -0.5 Z"/><text text-anchor="middle" pointer-events="none" font-size="8px" fill="#000000" x="61.88586049501342" y="3" font-family="sans-serif">road</text></g><g class="relationship" transform="translate(237.97813373837366 111.17886341474957) rotate(289.77369520111733)"><path class="outline" fill="#A5ABB6" stroke="none" d="M 21.40063509461097,12.933012701892217 L 21.90063509461097,12.06698729810778 A 83.91933243225158 83.91933243225158 0 0 0 38.99827708181096,19.542657419231432 L 38.70201609511881,20.497764443477507 A 84.91933243225158 84.91933243225158 0 0 1 21.40063509461097,12.933012701892217 Z M 84.83921448872164,21.6778827896933 L 84.59216929209668,20.708878831587583 A 83.91933243225158 83.91933243225158 0 0 0 102.04963555562186,14.117075061737847 L 100.6844197058992,11.445711049914298 L 108.51035422483059,11.376798747688882 L 103.86992335525208,17.678893744169248 L 102.50470750552942,15.007529732345699 A 84.91933243225158 84.91933243225158 0 0 1 84.83921448872164,21.6778827896933"/><text text-anchor="middle" pointer-events="none" font-size="8px" fill="#000000" x="61.70169107227926" y="26.782443529830857" font-family="sans-serif">twowheeler</text></g><g class="relationship" transform="translate(282.2189812704883 -11.88205816612276) rotate(525.1819244286098)"><path class="outline" fill="#A5ABB6" stroke="none" d="M 25 0.5 L 53.182677410905455 0.5 L 53.182677410905455 -0.5 L 25 -0.5 Z M 75.19439616090546 0.5 L 103.37707357181091 0.5 L 103.37707357181091 3.5 L 110.37707357181091 0 L 103.37707357181091 -3.5 L 103.37707357181091 -0.5 L 75.19439616090546 -0.5 Z"/><text text-anchor="middle" pointer-events="none" font-size="8px" fill="#000000" x="64.18853678590546" y="3" transform="rotate(180 64.18853678590546 0)" font-family="sans-serif">road</text></g><g class="relationship" transform="translate(282.2189812704883 -11.88205816612276) rotate(525.1819244286098)"><path class="outline" fill="#A5ABB6" stroke="none" d="M 21.40063509461097,-12.933012701892217 L 21.90063509461097,-12.06698729810778 A 88.62848010640404 88.62848010640404 0 0 1 41.262067414731455,-20.355783770099578 L 40.98052351706872,-21.315332118901694 A 89.62848010640404 89.62848010640404 0 0 0 21.40063509461097,-12.933012701892217 Z M 87.16456041758016,-22.458184103437375 L 86.93082126184645,-21.485884763173857 A 88.62848010640404 88.62848010640404 0 0 1 106.67852788030442,-14.164867637663148 L 105.30886704383586,-11.495779929654239 L 113.13467600506996,-11.413840303904665 L 108.50474232892917,-17.723651248341692 L 107.13508149246061,-15.054563540332785 A 89.62848010640404 89.62848010640404 0 0 0 87.16456041758016,-22.458184103437375"/><text text-anchor="middle" pointer-events="none" font-size="8px" fill="#000000" x="64.01001185340024" y="-21.41367596925204" transform="rotate(180 64.01001185340024 -24.41367596925204)" font-family="sans-serif">twowheeler</text></g><g class="relationship" transform="translate(206.5710318914922 217.05581647731356) rotate(218.1049001489065)"><path class="outline" fill="#A5ABB6" stroke="none" d="M 21.40063509461097,12.933012701892217 L 21.90063509461097,12.06698729810778 A 66.33932664538146 66.33932664538146 0 0 0 43.59370802131062,19.954515644386646 L 43.420709726387614,20.939437768188185 A 67.33932664538146 67.33932664538146 0 0 1 21.40063509461097,12.933012701892217 Z M 62.82514248371573,21.506754802257888 L 62.70998178264053,20.51340792783391 A 66.33932664538146 66.33932664538146 0 0 0 84.82681418078482,13.906726378912666 L 83.48116369253609,11.225453404470123 L 91.30739286919221,11.21375406873939 L 86.62101483178313,17.481757011502722 L 85.27536434353439,14.80048403706018 A 67.33932664538146 67.33932664538146 0 0 1 62.82514248371573,21.506754802257888"/><text text-anchor="middle" pointer-events="none" font-size="8px" fill="#000000" x="53.116987370267054" y="24.42622394202033" transform="rotate(180 53.116987370267054 21.42622394202033)" font-family="sans-serif">trek</text></g><g class="relationship" transform="translate(117.14081446579755 146.92121728002698) rotate(285.399295525177)"><path class="outline" fill="#A5ABB6" stroke="none" d="M 25 0.5 L 51.2344053858197 0.5 L 51.2344053858197 -0.5 L 25 -0.5 Z M 70.5703428858197 0.5 L 96.8047482716394 0.5 L 96.8047482716394 3.5 L 103.8047482716394 0 L 96.8047482716394 -3.5 L 96.8047482716394 -0.5 L 70.5703428858197 -0.5 Z"/><text text-anchor="middle" pointer-events="none" font-size="8px" fill="#000000" x="60.9023741358197" y="3" font-family="sans-serif">trek</text></g><g class="relationship" transform="translate(206.5710318914922 217.05581647731356) rotate(218.1049001489065)"><path class="outline" fill="#A5ABB6" stroke="none" d="M 25 0.5 L 42.31980778644002 0.5 L 42.31980778644002 -0.5 L 25 -0.5 Z M 64.33152653644002 0.5 L 81.65133432288005 0.5 L 81.65133432288005 3.5 L 88.65133432288005 0 L 81.65133432288005 -3.5 L 81.65133432288005 -0.5 L 64.33152653644002 -0.5 Z"/><text text-anchor="middle" pointer-events="none" font-size="8px" fill="#000000" x="53.32566716144002" y="3" transform="rotate(180 53.32566716144002 0)" font-family="sans-serif">road</text></g><g class="relationship" transform="translate(206.5710318914922 217.05581647731356) rotate(218.1049001489065)"><path class="outline" fill="#A5ABB6" stroke="none" d="M 21.40063509461097,-12.933012701892217 L 21.90063509461097,-12.06698729810778 A 66.33932664538146 66.33932664538146 0 0 1 23.7918605565703,-13.118142396671132 L 23.320368917411358,-14.000012928100332 A 67.33932664538146 67.33932664538146 0 0 0 21.40063509461097,-12.933012701892217 Z M 83.2965722361941,-15.75350514336354 L 82.87740745945767,-14.845594966119386 A 66.33932664538146 66.33932664538146 0 0 1 84.82681418078482,-13.906726378912666 L 83.48116369253609,-11.225453404470123 L 91.30739286919221,-11.21375406873939 L 86.62101483178313,-17.481757011502722 L 85.27536434353439,-14.80048403706018 A 67.33932664538146 67.33932664538146 0 0 0 83.2965722361941,-15.75350514336354"/><text text-anchor="middle" pointer-events="none" font-size="8px" fill="#000000" x="53.11698737026705" y="-18.42622394202033" transform="rotate(180 53.11698737026705 -21.42622394202033)" font-family="sans-serif">PublicTransport</text></g><g class="relationship" transform="translate(117.14081446579755 146.92121728002698) rotate(529.9765690333411)"><path class="outline" fill="#A5ABB6" stroke="none" d="M 24.018736134675446,-6.953439040707552 L 24.277555179777966,-5.987513214418485 A 183.04898597430963 183.04898597430963 0 0 1 46.395570570335835,-10.473693507202341 L 46.257582652883826,-11.464127419504052 A 184.04898597430963 184.04898597430963 0 0 0 24.018736134675446,-6.953439040707552 Z M 92.72142802236397,-12.015037647854285 L 92.60696225133998,-11.021610455120026 A 183.04898597430963 183.04898597430963 0 0 1 114.8251277912778,-7.061113203986448 L 114.11759572889254,-4.145740435248827 L 121.74558626206313,-5.896100519877123 L 115.76850387445815,-10.94827689563661 L 115.06097181207289,-8.03290412689899 A 184.04898597430963 184.04898597430963 0 0 0 92.72142802236397,-12.015037647854285"/><text text-anchor="middle" pointer-events="none" font-size="8px" fill="#000000" x="69.47797733797393" y="-9.711855629351419" transform="rotate(180 69.47797733797393 -12.711855629351419)" font-family="sans-serif">twowheeler</text></g><g class="relationship" transform="translate(-26.670480871248614 172.33967294005433) rotate(271.56813000491456)"><path class="outline" fill="#A5ABB6" stroke="none" d="M 24.018736134675446,-6.953439040707552 L 24.277555179777966,-5.987513214418485 A 87.34496944516464 87.34496944516464 0 0 1 25.156588515258488,-6.218154931088961 L 24.9078333964595,-7.186721341239192 A 88.34496944516464 88.34496944516464 0 0 0 24.018736134675446,-6.953439040707552 Z M 65.88410690780125,-7.896403467116713 L 65.66904078393429,-6.919803977886431 A 87.34496944516464 87.34496944516464 0 0 1 66.55553365871023,-6.71974001479914 L 65.87988729861931,-3.7968130577754278 L 73.48830428511404,-5.6303863340909555 L 67.45639547216479,-10.616975957497424 L 66.78074911207386,-7.6940490004737105 A 88.34496944516464 88.34496944516464 0 0 0 65.88410690780125,-7.896403467116713"/><text text-anchor="middle" pointer-events="none" font-size="8px" fill="#000000" x="45.36290776126304" y="-6.450548866875849" font-family="sans-serif">twowhe…</text></g><g class="relationship" transform="translate(-23.992864118842284 74.53028818937561) rotate(300.45830100882057)"><path class="outline" fill="#A5ABB6" stroke="none" d="M 24.018736134675446,6.953439040707552 L 24.277555179777966,5.987513214418485 A 106.76053172540696 106.76053172540696 0 0 0 40.6152589843714,9.026228395226795 L 40.50947124719281,10.020617129406048 A 107.76053172540696 107.76053172540696 0 0 1 24.018736134675446,6.953439040707552 Z M 59.906813669800506,10.328103762686368 L 59.83259726156493,9.33086160315409 A 106.76053172540696 106.76053172540696 0 0 0 76.2584074729334,6.811513580986012 L 75.57418851044335,3.8905814675384853 L 83.18795223139264,5.701824687417135 L 77.17069942292014,10.70608973224938 L 76.48648046043009,7.785157618801853 A 107.76053172540696 107.76053172540696 0 0 1 59.906813669800506,10.328103762686368"/><text text-anchor="middle" pointer-events="none" font-size="8px" fill="#000000" x="50.20913391085719" y="13.111816130777143" font-family="sans-serif">trek</text></g><g class="relationship" transform="translate(117.14081446579755 146.92121728002698) rotate(529.9765690333411)"><path class="outline" fill="#A5ABB6" stroke="none" d="M 24.018736134675446,6.953439040707552 L 24.277555179777966,5.987513214418485 A 183.04898597430963 183.04898597430963 0 0 0 59.850417545538924,11.843785721349008 L 59.78593370626351,12.84170447278737 A 184.04898597430963 184.04898597430963 0 0 1 24.018736134675446,6.953439040707552 Z M 79.16421755068785,13.071467952173862 L 79.12341266075978,12.07230081852805 A 183.04898597430963 183.04898597430963 0 0 0 114.8251277912778,7.061113203986448 L 114.11759572889254,4.145740435248827 L 121.74558626206313,5.896100519877123 L 115.76850387445815,10.94827689563661 L 115.06097181207289,8.03290412689899 A 184.04898597430963 184.04898597430963 0 0 1 79.16421755068785,13.071467952173862"/><text text-anchor="middle" pointer-events="none" font-size="8px" fill="#000000" x="69.47797733797398" y="15.711855629351419" transform="rotate(180 69.47797733797398 12.711855629351419)" font-family="sans-serif">trek</text></g><g class="relationship" transform="translate(-26.670480871248614 172.33967294005433) rotate(271.56813000491456)"><path class="outline" fill="#A5ABB6" stroke="none" d="M 24.018736134675446,6.953439040707552 L 24.277555179777966,5.987513214418485 A 87.34496944516464 87.34496944516464 0 0 0 35.78861006864341,8.256121325907884 L 35.66157943633657,9.248020120370171 A 88.34496944516464 88.34496944516464 0 0 1 24.018736134675446,6.953439040707552 Z M 55.065431043529806,9.584082077175324 L 54.9728243639551,8.588379308826177 A 87.34496944516464 87.34496944516464 0 0 0 66.55553365871023,6.71974001479914 L 65.87988729861931,3.7968130577754278 L 73.48830428511404,5.6303863340909555 L 67.45639547216479,10.616975957497424 L 66.78074911207386,7.6940490004737105 A 88.34496944516464 88.34496944516464 0 0 1 55.065431043529806,9.584082077175324"/><text text-anchor="middle" pointer-events="none" font-size="8px" fill="#000000" x="45.36290776126303" y="12.450548866875849" font-family="sans-serif">trek</text></g><g class="relationship" transform="translate(-23.992864118842284 74.53028818937561) rotate(300.45830100882057)"><path class="outline" fill="#A5ABB6" stroke="none" d="M 24.018736134675446,-6.953439040707552 L 24.277555179777966,-5.987513214418485 A 106.76053172540696 106.76053172540696 0 0 1 27.315743396061787,-6.753989476427279 L 27.085382322900603,-7.727094699911376 A 107.76053172540696 107.76053172540696 0 0 0 24.018736134675446,-6.953439040707552 Z M 73.39685328060892,-8.461224044890542 L 73.19745152487354,-7.481306221902486 A 106.76053172540696 106.76053172540696 0 0 1 76.2584074729334,-6.811513580986012 L 75.57418851044335,-3.8905814675384853 L 83.18795223139264,-5.701824687417135 L 77.17069942292014,-10.70608973224938 L 76.48648046043009,-7.785157618801853 A 107.76053172540696 107.76053172540696 0 0 0 73.39685328060892,-8.461224044890542"/><text text-anchor="middle" pointer-events="none" font-size="8px" fill="#000000" x="50.20913391085715" y="-7.111816130777143" font-family="sans-serif">twowheeler</text></g><g class="relationship" transform="translate(117.14081446579755 146.92121728002698) rotate(343.52236068574484)"><path class="outline" fill="#A5ABB6" stroke="none" d="M 25 0.5 L 49.838327738551854 0.5 L 49.838327738551854 -0.5 L 25 -0.5 Z M 69.17426523855185 0.5 L 94.01259297710371 0.5 L 94.01259297710371 3.5 L 101.01259297710371 0 L 94.01259297710371 -3.5 L 94.01259297710371 -0.5 L 69.17426523855185 -0.5 Z"/><text text-anchor="middle" pointer-events="none" font-size="8px" fill="#000000" x="59.506296488551854" y="3" font-family="sans-serif">trek</text></g><g class="relationship" transform="translate(-26.670480871248614 172.33967294005433) rotate(200.9009982483126)"><path class="outline" fill="#A5ABB6" stroke="none" d="M 24.018736134675446,-6.953439040707552 L 24.277555179777966,-5.987513214418485 A 90.58135084215783 90.58135084215783 0 0 1 36.59015819543377,-8.387414103340873 L 36.46726782550758,-9.37983435554223 A 91.58135084215783 91.58135084215783 0 0 0 24.018736134675446,-6.953439040707552 Z M 55.870040836521866,-9.710786240348597 L 55.781067406312,-8.714752240569126 A 90.58135084215783 90.58135084215783 0 0 1 68.16835417642278,-6.7361558257272485 L 67.49117437911957,-3.813583752685356 L 75.10055231307106,-5.643164977526741 L 69.07126057282707,-10.632918589783106 L 68.39408077552386,-7.710346516741213 A 91.58135084215783 91.58135084215783 0 0 0 55.870040836521866,-9.710786240348597"/><text text-anchor="middle" pointer-events="none" font-size="8px" fill="#000000" x="46.1683909560944" y="-6.560751224649067" transform="rotate(180 46.1683909560944 -9.560751224649067)" font-family="sans-serif">trek</text></g><g class="relationship" transform="translate(-119.5814672624336 136.85856244091937) rotate(326.89375482695783)"><path class="outline" fill="#A5ABB6" stroke="none" d="M 21.40063509461097,12.933012701892217 L 21.90063509461097,12.06698729810778 A 66.81618037067544 66.81618037067544 0 0 0 43.8244775879925,20.024313104537214 L 43.652599344904594,21.009431305340044 A 67.81618037067544 67.81618037067544 0 0 1 21.40063509461097,12.933012701892217 Z M 63.057031680695914,21.57456442569665 L 62.94277714205343,20.581112916865152 A 66.81618037067544 66.81618037067544 0 0 0 85.29256365340042,13.913208706284328 L 83.94631017675252,11.232238438524272 L 91.77253652428186,11.218778972065893 L 87.08756828893095,17.487835729964402 L 85.74131481228305,14.806865462204348 A 67.81618037067544 67.81618037067544 0 0 1 63.057031680695914,21.57456442569665"/><text text-anchor="middle" pointer-events="none" font-size="8px" fill="#000000" x="53.349045205679495" y="24.49012735049864" font-family="sans-serif">trek</text></g><g class="relationship" transform="translate(-26.670480871248614 172.33967294005433) rotate(200.9009982483126)"><path class="outline" fill="#A5ABB6" stroke="none" d="M 24.018736134675446,6.953439040707552 L 24.277555179777966,5.987513214418485 A 90.58135084215783 90.58135084215783 0 0 0 25.94271641691248,6.416793440516798 L 25.702280418890325,7.387458434660033 A 91.58135084215783 91.58135084215783 0 0 1 24.018736134675446,6.953439040707552 Z M 66.69671404728899,8.086697923169552 L 66.4895214260407,7.108397755685019 A 90.58135084215783 90.58135084215783 0 0 0 68.16835417642278,6.7361558257272485 L 67.49117437911957,3.813583752685356 L 75.10055231307106,5.643164977526741 L 69.07126057282707,10.632918589783106 L 68.39408077552386,7.710346516741213 A 91.58135084215783 91.58135084215783 0 0 1 66.69671404728899,8.086697923169552"/><text text-anchor="middle" pointer-events="none" font-size="8px" fill="#000000" x="46.16839095609443" y="12.560751224649067" transform="rotate(180 46.16839095609443 9.560751224649067)" font-family="sans-serif">twowhe…</text></g><g class="relationship" transform="translate(-119.5814672624336 136.85856244091937) rotate(326.89375482695783)"><path class="outline" fill="#A5ABB6" stroke="none" d="M 25 0.5 L 42.55111833614119 0.5 L 42.55111833614119 -0.5 L 25 -0.5 Z M 64.56283708614119 0.5 L 82.11395542228237 0.5 L 82.11395542228237 3.5 L 89.11395542228237 0 L 82.11395542228237 -3.5 L 82.11395542228237 -0.5 L 64.56283708614119 -0.5 Z"/><text text-anchor="middle" pointer-events="none" font-size="8px" fill="#000000" x="53.55697771114119" y="3" font-family="sans-serif">road</text></g><g class="relationship" transform="translate(-119.5814672624336 136.85856244091937) rotate(326.89375482695783)"><path class="outline" fill="#A5ABB6" stroke="none" d="M 21.40063509461097,-12.933012701892217 L 21.90063509461097,-12.06698729810778 A 66.81618037067544 66.81618037067544 0 0 1 30.883078747239605,-16.394034622423753 L 30.517513903556488,-17.324820497404104 A 67.81618037067544 67.81618037067544 0 0 0 21.40063509461097,-12.933012701892217 Z M 76.3842923046424,-18.660640847618623 L 76.07351739945757,-17.71015730840957 A 66.81618037067544 66.81618037067544 0 0 1 85.29256365340042,-13.913208706284328 L 83.94631017675252,-11.232238438524272 L 91.77253652428186,-11.218778972065893 L 87.08756828893095,-17.487835729964402 L 85.74131481228305,-14.806865462204348 A 67.81618037067544 67.81618037067544 0 0 0 76.3842923046424,-18.660640847618623"/><text text-anchor="middle" pointer-events="none" font-size="8px" fill="#000000" x="53.349045205679495" y="-18.49012735049864" font-family="sans-serif">twowheeler</text></g><g class="relationship" transform="translate(-119.5814672624336 136.85856244091937) rotate(279.91070184031247)"><path class="outline" fill="#A5ABB6" stroke="none" d="M 25 0.5 L 41.881230219038535 0.5 L 41.881230219038535 -0.5 L 25 -0.5 Z M 61.217167719038535 0.5 L 78.09839793807707 0.5 L 78.09839793807707 3.5 L 85.09839793807707 0 L 78.09839793807707 -3.5 L 78.09839793807707 -0.5 L 61.217167719038535 -0.5 Z"/><text text-anchor="middle" pointer-events="none" font-size="8px" fill="#000000" x="51.549198969038535" y="3" font-family="sans-serif">trek</text></g><g class="relationship" transform="translate(-100.63209087394003 28.403141354565307) rotate(340.452978570704)"><path class="outline" fill="#A5ABB6" stroke="none" d="M 25 0.5 L 56.4157874586234 0.5 L 56.4157874586234 -0.5 L 25 -0.5 Z M 75.7517249586234 0.5 L 107.1675124172468 0.5 L 107.1675124172468 3.5 L 114.1675124172468 0 L 107.1675124172468 -3.5 L 107.1675124172468 -0.5 L 75.7517249586234 -0.5 Z"/><text text-anchor="middle" pointer-events="none" font-size="8px" fill="#000000" x="66.0837562086234" y="3" font-family="sans-serif">trek</text></g></g><g class="layer nodes"><g class="node" transform="translate(206.5710318914922,217.05581647731356)"><circle class="outline" cx="0" cy="0" r="25" fill="#8DCC93" stroke="#5db665" stroke-width="2px"/><text text-anchor="middle" pointer-events="none" font-family="sans-serif" dy="1.5625" font-size="25" fill="#604A0E"/><text text-anchor="middle" pointer-events="none" y="5" font-size="10px" fill="#604A0E" font-family="sans-serif"> Darjeeling</text></g><g class="node" transform="translate(237.97813373837366,111.17886341474957)"><circle class="outline" cx="0" cy="0" r="25" fill="#D9C8AE" stroke="#c0a378" stroke-width="2px"/><text text-anchor="middle" pointer-events="none" font-family="sans-serif" dy="1.5625" font-size="25" fill="#604A0E"/><text text-anchor="middle" pointer-events="none" y="5" font-size="10px" fill="#604A0E" font-family="sans-serif"> Tumbling</text></g><g class="node" transform="translate(282.2189812704883,-11.88205816612276)"><circle class="outline" cx="0" cy="0" r="25" fill="#D9C8AE" stroke="#c0a378" stroke-width="2px"/><text text-anchor="middle" pointer-events="none" font-family="sans-serif" dy="1.5625" font-size="25" fill="#604A0E"/><text text-anchor="middle" pointer-events="none" y="5" font-size="10px" fill="#604A0E" font-family="sans-serif"> Gairibus</text></g><g class="node" transform="translate(151.3441764838721,22.740730874227594)"><circle class="outline" cx="0" cy="0" r="25" fill="#D9C8AE" stroke="#c0a378" stroke-width="2px"/><text text-anchor="middle" pointer-events="none" font-family="sans-serif" dy="1.5625" font-size="25" fill="#604A0E"/><text text-anchor="middle" pointer-events="none" y="5" font-size="10px" fill="#604A0E" font-family="sans-serif"> BhikeBh…</text></g><g class="node" transform="translate(30.514811680018518,-18.15957401843508)"><circle class="outline" cx="0" cy="0" r="25" fill="#F16667" stroke="#eb2728" stroke-width="2px"/><text text-anchor="middle" pointer-events="none" font-family="sans-serif" dy="1.5625" font-size="25" fill="#FFFFFF"/><text text-anchor="middle" pointer-events="none" y="5" font-size="10px" fill="#FFFFFF" font-family="sans-serif"> Sandak…</text></g><g class="node" transform="translate(117.14081446579755,146.92121728002698)"><circle class="outline" cx="0" cy="0" r="25" fill="#8DCC93" stroke="#5db665" stroke-width="2px"/><text text-anchor="middle" pointer-events="none" font-family="sans-serif" dy="1.5625" font-size="25" fill="#604A0E"/><text text-anchor="middle" pointer-events="none" y="5" font-size="10px" fill="#604A0E" font-family="sans-serif"> Rimbik</text></g><g class="node" transform="translate(-26.670480871248614,172.33967294005433)"><circle class="outline" cx="0" cy="0" r="25" fill="#D9C8AE" stroke="#c0a378" stroke-width="2px"/><text text-anchor="middle" pointer-events="none" font-family="sans-serif" dy="1.5625" font-size="25" fill="#604A0E"/><text text-anchor="middle" pointer-events="none" y="5" font-size="10px" fill="#604A0E" font-family="sans-serif"> Sirikhola</text></g><g class="node" transform="translate(-23.992864118842284,74.53028818937561)"><circle class="outline" cx="0" cy="0" r="25" fill="#D9C8AE" stroke="#c0a378" stroke-width="2px"/><text text-anchor="middle" pointer-events="none" font-family="sans-serif" dy="1.5625" font-size="25" fill="#604A0E"/><text text-anchor="middle" pointer-events="none" y="5" font-size="10px" fill="#604A0E" font-family="sans-serif"> Gurdum</text></g><g class="node" transform="translate(-119.5814672624336,136.85856244091937)"><circle class="outline" cx="0" cy="0" r="25" fill="#D9C8AE" stroke="#c0a378" stroke-width="2px"/><text text-anchor="middle" pointer-events="none" font-family="sans-serif" dy="1.5625" font-size="25" fill="#604A0E"/><text text-anchor="middle" pointer-events="none" y="5" font-size="10px" fill="#604A0E" font-family="sans-serif"> Rammam</text></g><g class="node" transform="translate(-100.63209087394003,28.403141354565307)"><circle class="outline" cx="0" cy="0" r="25" fill="#F16667" stroke="#eb2728" stroke-width="2px"/><text text-anchor="middle" pointer-events="none" font-family="sans-serif" dy="1.5625" font-size="25" fill="#FFFFFF"/><text text-anchor="middle" pointer-events="none" y="5" font-size="10px" fill="#FFFFFF" font-family="sans-serif"> Sabargr…</text></g></g></svg>