<svg xmlns="http://www.w3.org/2000/svg" width="485.60516357421875" height="288.6788635253906" viewBox="-154.93359375 -52.95170593261719 485.60516357421875 288.6788635253906"><title>Neo4j Graph Visualization</title><desc>Created using Neo4j (http://www.neo4j.com/)</desc><g class="layer relationships"><g class="relationship" transform="translate(301.67157178961395 139.00104475750453) rotate(504.4009888047135)"><path class="outline" fill="#A5ABB6" stroke="none" d="M 25 0.5 L 45.0050932722232 0.5 L 45.0050932722232 -0.5 L 25 -0.5 Z M 64.3410307722232 0.5 L 84.3461240444464 0.5 L 84.3461240444464 3.5 L 91.3461240444464 0 L 84.3461240444464 -3.5 L 84.3461240444464 -0.5 L 64.3410307722232 -0.5 Z"/><text text-anchor="middle" pointer-events="none" font-size="8px" fill="#000000" x="54.6730620222232" y="3" transform="rotate(180 54.6730620222232 0)" font-family="sans-serif">trek</text></g><g class="relationship" transform="translate(176.49391256912736 -23.95170394204103) rotate(380.6763443120954)"><path class="outline" fill="#A5ABB6" stroke="none" d="M 24.018736134675446,-6.953439040707552 L 24.277555179777966,-5.987513214418485 A 122.63667050585556 122.63667050585556 0 0 1 31.234756632699256,-7.635917385140459 L 31.03266777624442,-8.61528457577775 A 123.63667050585556 123.63667050585556 0 0 0 24.018736134675446,-6.953439040707552 Z M 77.40479574035939,-9.302499295645617 L 77.23181684568193,-8.317573764452433 A 122.63667050585556 122.63667050585556 0 0 1 84.23480963036053,-6.876053586195009 L 83.5445622097648,-3.95654018523913 L 91.1620488026902,-5.752061838297649 L 85.15513952448815,-10.768738120802848 L 84.46489210389242,-7.849224719846968 A 123.63667050585556 123.63667050585556 0 0 0 77.40479574035939,-9.302499295645617"/><text text-anchor="middle" pointer-events="none" font-size="8px" fill="#000000" x="54.19362971216743" y="-7.652737049700093" font-family="sans-serif">twowheeler</text></g><g class="relationship" transform="translate(176.49391256912736 -23.95170394204103) rotate(433.2901833481002)"><path class="outline" fill="#A5ABB6" stroke="none" d="M 24.018736134675446,-6.953439040707552 L 24.277555179777966,-5.987513214418485 A 125.77284521788917 125.77284521788917 0 0 1 32.01341708245819,-7.800507547466353 L 31.81610465183416,-8.780848204952946 A 126.77284521788917 126.77284521788917 0 0 0 24.018736134675446,-6.953439040707552 Z M 78.19723200659425,-9.459443482805668 L 78.02868432518054,-8.473749981208911 A 125.77284521788917 125.77284521788917 0 0 1 85.81427497181572,-6.8878476790385434 L 85.12292592800495,-3.9685949493794763 L 92.74108951498867,-5.761242031756554 L 86.73607369689677,-10.780184651917299 L 86.04472465308599,-7.8609319222582315 A 126.77284521788917 126.77284521788917 0 0 0 78.19723200659425,-9.459443482805668"/><text text-anchor="middle" pointer-events="none" font-size="8px" fill="#000000" x="54.98268163399835" y="-7.759606066984034" font-family="sans-serif">twowheeler</text></g><g class="relationship" transform="translate(176.49391256912736 -23.95170394204103) rotate(433.2901833481002)"><path class="outline" fill="#A5ABB6" stroke="none" d="M 24.018736134675446,6.953439040707552 L 24.277555179777966,5.987513214418485 A 125.77284521788917 125.77284521788917 0 0 0 45.37613500144181,9.750497010553289 L 45.285067427534145,10.746341725849092 A 126.77284521788917 126.77284521788917 0 0 1 24.018736134675446,6.953439040707552 Z M 64.67653300661374,11.030055333583476 L 64.61463828370026,10.03197264999686 A 125.77284521788917 125.77284521788917 0 0 0 85.81427497181572,6.8878476790385434 L 85.12292592800495,3.9685949493794763 L 92.74108951498867,5.761242031756554 L 86.73607369689677,10.780184651917299 L 86.04472465308599,7.8609319222582315 A 126.77284521788917 126.77284521788917 0 0 1 64.67653300661374,11.030055333583476"/><text text-anchor="middle" pointer-events="none" font-size="8px" fill="#000000" x="54.98268163399833" y="13.759606066984034" font-family="sans-serif">trek</text></g><g class="relationship" transform="translate(176.49391256912736 -23.95170394204103) rotate(380.6763443120954)"><path class="outline" fill="#A5ABB6" stroke="none" d="M 24.018736134675446,6.953439040707552 L 24.277555179777966,5.987513214418485 A 122.63667050585556 122.63667050585556 0 0 0 44.58887089190884,9.632501495765496 L 44.495673725061415,10.628149168434703 A 123.63667050585556 123.63667050585556 0 0 1 24.018736134675446,6.953439040707552 Z M 63.88805551786438,10.915535812231255 L 63.82440292716448,9.917563694535986 A 122.63667050585556 122.63667050585556 0 0 0 84.23480963036053,6.876053586195009 L 83.5445622097648,3.95654018523913 L 91.1620488026902,5.752061838297649 L 85.15513952448815,10.768738120802848 L 84.46489210389242,7.849224719846968 A 123.63667050585556 123.63667050585556 0 0 1 63.88805551786438,10.915535812231255"/><text text-anchor="middle" pointer-events="none" font-size="8px" fill="#000000" x="54.19362971216744" y="13.652737049700093" font-family="sans-serif">trek</text></g><g class="relationship" transform="translate(284.5464306426211 16.82696675058032) rotate(442.0208364948494)"><path class="outline" fill="#A5ABB6" stroke="none" d="M 25 0.5 L 48.51625896695053 0.5 L 48.51625896695053 -0.5 L 25 -0.5 Z M 67.85219646695053 0.5 L 91.36845543390106 0.5 L 91.36845543390106 3.5 L 98.36845543390106 0 L 91.36845543390106 -3.5 L 91.36845543390106 -0.5 L 67.85219646695053 -0.5 Z"/><text text-anchor="middle" pointer-events="none" font-size="8px" fill="#000000" x="58.18422771695053" y="3" font-family="sans-serif">trek</text></g><g class="relationship" transform="translate(284.5464306426211 16.82696675058032) rotate(496.19749478498795)"><path class="outline" fill="#A5ABB6" stroke="none" d="M 21.40063509461097,12.933012701892217 L 21.90063509461097,12.06698729810778 A 55.403068758093525 55.403068758093525 0 0 0 25.621412089184517,14.030724202510022 L 25.188570408714067,14.932194157443362 A 56.403068758093525 56.403068758093525 0 0 1 21.40063509461097,12.933012701892217 Z M 70.70774852300576,16.391978028325454 L 70.33355648852857,15.464626788862319 A 55.403068758093525 55.403068758093525 0 0 0 74.1725112751415,13.743327796995786 L 72.84206104816408,11.054480052415272 L 80.6682310503256,11.08708522481188 L 75.9464449111114,17.328458123103136 L 74.61599468413398,14.639610378522622 A 56.403068758093525 56.403068758093525 0 0 1 70.70774852300576,16.391978028325454"/><text text-anchor="middle" pointer-events="none" font-size="8px" fill="#000000" x="47.81029911742606" y="22.960866124935983" transform="rotate(180 47.81029911742606 19.960866124935983)" font-family="sans-serif">twowheeler</text></g><g class="relationship" transform="translate(284.5464306426211 16.82696675058032) rotate(496.19749478498795)"><path class="outline" fill="#A5ABB6" stroke="none" d="M 25 0.5 L 37.03178841924829 0.5 L 37.03178841924829 -0.5 L 25 -0.5 Z M 59.04350716924829 0.5 L 71.07529558849657 0.5 L 71.07529558849657 3.5 L 78.07529558849657 0 L 71.07529558849657 -3.5 L 71.07529558849657 -0.5 L 59.04350716924829 -0.5 Z"/><text text-anchor="middle" pointer-events="none" font-size="8px" fill="#000000" x="48.03764779424829" y="3" transform="rotate(180 48.03764779424829 0)" font-family="sans-serif">road</text></g><g class="relationship" transform="translate(284.5464306426211 16.82696675058032) rotate(496.19749478498795)"><path class="outline" fill="#A5ABB6" stroke="none" d="M 21.40063509461097,-12.933012701892217 L 21.90063509461097,-12.06698729810778 A 55.403068758093525 55.403068758093525 0 0 1 38.32390763853481,-18.329501923555895 L 38.12034018120917,-19.30856284623536 A 56.403068758093525 56.403068758093525 0 0 0 21.40063509461097,-12.933012701892217 Z M 57.52214230404235,-19.930771747587762 L 57.381724894054386,-18.940679352418364 A 55.403068758093525 55.403068758093525 0 0 1 74.1725112751415,-13.743327796995786 L 72.84206104816408,-11.054480052415272 L 80.6682310503256,-11.08708522481188 L 75.9464449111114,-17.328458123103136 L 74.61599468413398,-14.639610378522622 A 56.403068758093525 56.403068758093525 0 0 0 57.52214230404235,-19.930771747587762"/><text text-anchor="middle" pointer-events="none" font-size="8px" fill="#000000" x="47.81029911742606" y="-16.960866124935983" transform="rotate(180 47.81029911742606 -19.960866124935983)" font-family="sans-serif">trek</text></g><g class="relationship" transform="translate(210.15390127165074 88.17308181261616) rotate(451.4904240948818)"><path class="outline" fill="#A5ABB6" stroke="none" d="M 24.018736134675446,6.953439040707552 L 24.277555179777966,5.987513214418485 A 128.805589443407 128.805589443407 0 0 0 46.13808646913718,9.864136296713298 L 46.04898468074551,10.860158822214316 A 129.805589443407 129.805589443407 0 0 1 24.018736134675446,6.953439040707552 Z M 65.43958523434509,11.140406161465052 L 65.3793051614722,10.142224658523617 A 128.805589443407 128.805589443407 0 0 0 87.34273808831445,6.898978006889692 L 86.65034942629941,3.979971679264996 L 94.26915096310792,5.769905516792038 L 88.26592297100117,10.79098644372262 L 87.57353430898614,7.871980116097925 A 129.805589443407 129.805589443407 0 0 1 65.43958523434509,11.140406161465052"/><text text-anchor="middle" pointer-events="none" font-size="8px" fill="#000000" x="55.746269722497765" y="13.862954571121918" transform="rotate(180 55.746269722497765 10.862954571121918)" font-family="sans-serif">trek</text></g><g class="relationship" transform="translate(210.15390127165074 88.17308181261616) rotate(451.4904240948818)"><path class="outline" fill="#A5ABB6" stroke="none" d="M 24.018736134675446,-6.953439040707552 L 24.277555179777966,-5.987513214418485 A 128.805589443407 128.805589443407 0 0 1 32.767588437646324,-7.957145680178812 L 32.57468293942135,-8.938363020401951 A 129.805589443407 129.805589443407 0 0 0 24.018736134675446,-6.953439040707552 Z M 78.96379791526596,-9.608812912154491 L 78.79932962724061,-8.622430540944407 A 128.805589443407 128.805589443407 0 0 1 87.34273808831445,-6.898978006889692 L 86.65034942629941,-3.979971679264996 L 94.26915096310792,-5.769905516792038 L 88.26592297100117,-10.79098644372262 L 87.57353430898614,-7.871980116097925 A 129.805589443407 129.805589443407 0 0 0 78.96379791526596,-9.608812912154491"/><text text-anchor="middle" pointer-events="none" font-size="8px" fill="#000000" x="55.74626972249776" y="-7.862954571121918" transform="rotate(180 55.74626972249776 -10.862954571121918)" font-family="sans-serif">twowheeler</text></g><g class="relationship" transform="translate(65.097801442758 -14.514400018215241) rotate(425.99511404921134)"><path class="outline" fill="#A5ABB6" stroke="none" d="M 25 0.5 L 65.69974278056972 0.5 L 65.69974278056972 -0.5 L 25 -0.5 Z M 85.03568028056972 0.5 L 125.73542306113944 0.5 L 125.73542306113944 3.5 L 132.73542306113944 0 L 125.73542306113944 -3.5 L 125.73542306113944 -0.5 L 85.03568028056972 -0.5 Z"/><text text-anchor="middle" pointer-events="none" font-size="8px" fill="#000000" x="75.36771153056972" y="3" font-family="sans-serif">trek</text></g><g class="relationship" transform="translate(65.097801442758 -14.514400018215241) rotate(355.1575543670576)"><path class="outline" fill="#A5ABB6" stroke="none" d="M 24.018736134675446,-6.953439040707552 L 24.277555179777966,-5.987513214418485 A 115.27554918782522 115.27554918782522 0 0 1 42.74390362399238,-9.35341527785937 L 42.64527768639894,-10.348539855203242 A 116.27554918782522 116.27554918782522 0 0 0 24.018736134675446,-6.953439040707552 Z M 62.03989522114573,-10.64492035751644 L 61.97172239777681,-9.64724683067817 A 115.27554918782522 115.27554918782522 0 0 1 80.53229670039887,-6.847174845771161 L 79.84474671753703,-3.9270250172406644 L 87.460571297447,-5.729583190515294 L 81.44903001088132,-10.740707950478491 L 80.76148002801948,-7.820558121947994 A 116.27554918782522 116.27554918782522 0 0 0 62.03989522114573,-10.64492035751644"/><text text-anchor="middle" pointer-events="none" font-size="8px" fill="#000000" x="52.34403535874189" y="-7.40191631965854" font-family="sans-serif">trek</text></g><g class="relationship" transform="translate(65.097801442758 -14.514400018215241) rotate(355.1575543670576)"><path class="outline" fill="#A5ABB6" stroke="none" d="M 24.018736134675446,6.953439040707552 L 24.277555179777966,5.987513214418485 A 115.27554918782522 115.27554918782522 0 0 0 29.412547408831127,7.2380038033548715 L 29.19827373579781,8.214777468563355 A 116.27554918782522 116.27554918782522 0 0 1 24.018736134675446,6.953439040707552 Z M 75.54581948320214,8.923041442575226 L 75.36149219437254,7.940176522765412 A 115.27554918782522 115.27554918782522 0 0 0 80.53229670039887,6.847174845771161 L 79.84474671753703,3.9270250172406644 L 87.460571297447,5.729583190515294 L 81.44903001088132,10.740707950478491 L 80.76148002801948,7.820558121947994 A 116.27554918782522 116.27554918782522 0 0 1 75.54581948320214,8.923041442575226"/><text text-anchor="middle" pointer-events="none" font-size="8px" fill="#000000" x="52.34403535874192" y="13.40191631965854" font-family="sans-serif">twowheeler</text></g><g class="relationship" transform="translate(65.097801442758 -14.514400018215241) rotate(181.79195632848734)"><path class="outline" fill="#A5ABB6" stroke="none" d="M 25 0.5 L 77.10115523655845 0.5 L 77.10115523655845 -0.5 L 25 -0.5 Z M 96.43709273655845 0.5 L 148.5382479731169 0.5 L 148.5382479731169 3.5 L 155.5382479731169 0 L 148.5382479731169 -3.5 L 148.5382479731169 -0.5 L 96.43709273655845 -0.5 Z"/><text text-anchor="middle" pointer-events="none" font-size="8px" fill="#000000" x="86.76912398655845" y="3" transform="rotate(180 86.76912398655845 0)" font-family="sans-serif">trek</text></g><g class="relationship" transform="translate(-115.35215614656789 -20.159910377176615) rotate(445.7766800598556)"><path class="outline" fill="#A5ABB6" stroke="none" d="M 21.40063509461097,-12.933012701892217 L 21.90063509461097,-12.06698729810778 A 152.4589271583066 152.4589271583066 0 0 1 72.48494704438103,-30.32024518023472 L 72.31673681158335,-31.305996324074883 A 153.4589271583066 153.4589271583066 0 0 0 21.40063509461097,-12.933012701892217 Z M 118.74762517467406,-32.101299640027875 L 118.61327309178975,-31.11036598037923 A 152.4589271583066 152.4589271583066 0 0 1 169.79303921422286,-14.600200069761222 L 168.38289665564287,-11.952276739209246 L 176.20655074527411,-11.751187988166564 L 171.6732292923295,-18.13076451049719 L 170.2630867337495,-15.482841179945215 A 153.4589271583066 153.4589271583066 0 0 0 118.74762517467406,-32.101299640027875"/><text text-anchor="middle" pointer-events="none" font-size="8px" fill="#000000" x="95.51048693109117" y="-29.97017680495678" font-family="sans-serif">twowheeler</text></g><g class="relationship" transform="translate(-115.35215614656789 -20.159910377176615) rotate(445.7766800598556)"><path class="outline" fill="#A5ABB6" stroke="none" d="M 25 0.5 L 85.96832049993691 0.5 L 85.96832049993691 -0.5 L 25 -0.5 Z M 105.30425799993691 0.5 L 166.27257849987382 0.5 L 166.27257849987382 3.5 L 173.27257849987382 0 L 166.27257849987382 -3.5 L 166.27257849987382 -0.5 L 105.30425799993691 -0.5 Z"/><text text-anchor="middle" pointer-events="none" font-size="8px" fill="#000000" x="95.63628924993691" y="3" font-family="sans-serif">trek</text></g><g class="relationship" transform="translate(-115.35215614656789 -20.159910377176615) rotate(445.7766800598556)"><path class="outline" fill="#A5ABB6" stroke="none" d="M 21.40063509461097,12.933012701892217 L 21.90063509461097,12.06698729810778 A 152.4589271583066 152.4589271583066 0 0 0 84.56699396961916,31.888109230896404 L 84.47803161787664,32.88414422022784 A 153.4589271583066 153.4589271583066 0 0 1 21.40063509461097,12.933012701892217 Z M 106.53941682285894,33.262028284621195 L 106.48461832853336,32.26353085096416 A 152.4589271583066 152.4589271583066 0 0 0 169.79303921422286,14.600200069761222 L 168.38289665564287,11.952276739209246 L 176.20655074527411,11.751187988166564 L 171.6732292923295,18.13076451049719 L 170.2630867337495,15.482841179945215 A 153.4589271583066 153.4589271583066 0 0 1 106.53941682285894,33.262028284621195"/><text text-anchor="middle" pointer-events="none" font-size="8px" fill="#000000" x="95.51048693109118" y="35.97017680495678" font-family="sans-serif">road</text></g><g class="relationship" transform="translate(-4.53495732275011 66.45310824705551) rotate(310.69581646034067)"><path class="outline" fill="#A5ABB6" stroke="none" d="M 21.40063509461097,12.933012701892217 L 21.90063509461097,12.06698729810778 A 59.254142227931325 59.254142227931325 0 0 0 23.16656379543671,12.777340032310953 L 22.687928187076306,13.65535367366823 A 60.254142227931325 60.254142227931325 0 0 1 21.40063509461097,12.933012701892217 Z M 77.03373128350549,15.340810860985243 L 76.61042387040774,14.434824749603564 A 59.254142227931325 59.254142227931325 0 0 0 77.91793847089488,13.804283670785331 L 76.58181758870556,11.11824923538104 L 84.40803896720311,11.134340684910976 L 79.69943298048064,17.385662917991052 L 78.36331209829132,14.69962848258676 A 60.254142227931325 60.254142227931325 0 0 1 77.03373128350549,15.340810860985243"/><text text-anchor="middle" pointer-events="none" font-size="8px" fill="#000000" x="49.675407729558934" y="23.476820789481067" font-family="sans-serif">PublicTrans…</text></g><g class="relationship" transform="translate(-4.53495732275011 66.45310824705551) rotate(218.01063630539505)"><path class="outline" fill="#A5ABB6" stroke="none" d="M 24.018736134675446,-6.953439040707552 L 24.277555179777966,-5.987513214418485 A 172.4322393373202 172.4322393373202 0 0 1 57.15625201193717,-11.46219159180896 L 57.088109008383,-12.459867155840982 A 173.4322393373202 173.4322393373202 0 0 0 24.018736134675446,-6.953439040707552 Z M 76.4683890154711,-12.698057769086034 L 76.42478647459167,-11.699008812113021 A 172.4322393373202 172.4322393373202 0 0 1 109.42810316823149,-7.034044081676527 L 108.7230992673251,-4.11805891372612 L 116.34956921026684,-5.875032507553326 L 110.36810836944002,-10.922024305610401 L 109.66310446853363,-8.006039137659995 A 173.4322393373202 173.4322393373202 0 0 0 76.4683890154711,-12.698057769086034"/><text text-anchor="middle" pointer-events="none" font-size="8px" fill="#000000" x="66.78106378273237" y="-9.349939808633195" transform="rotate(180 66.78106378273237 -12.349939808633195)" font-family="sans-serif">trek</text></g><g class="relationship" transform="translate(-4.53495732275011 66.45310824705551) rotate(310.69581646034067)"><path class="outline" fill="#A5ABB6" stroke="none" d="M 25 0.5 L 40.22786088111944 0.5 L 40.22786088111944 -0.5 L 25 -0.5 Z M 59.56379838111944 0.5 L 74.79165926223888 0.5 L 74.79165926223888 3.5 L 81.79165926223888 0 L 74.79165926223888 -3.5 L 74.79165926223888 -0.5 L 59.56379838111944 -0.5 Z"/><text text-anchor="middle" pointer-events="none" font-size="8px" fill="#000000" x="49.89582963111944" y="3" font-family="sans-serif">trek</text></g><g class="relationship" transform="translate(-4.53495732275011 66.45310824705551) rotate(218.01063630539505)"><path class="outline" fill="#A5ABB6" stroke="none" d="M 24.018736134675446,6.953439040707552 L 24.277555179777966,5.987513214418485 A 172.4322393373202 172.4322393373202 0 0 0 55.82569540308824,11.366139894382684 L 55.749835996766464,12.363258418166339 A 173.4322393373202 173.4322393373202 0 0 1 24.018736134675446,6.953439040707552 Z M 77.80863214162417,12.63436895832723 L 77.75730183841361,11.635687227257563 A 172.4322393373202 172.4322393373202 0 0 0 109.42810316823149,7.034044081676527 L 108.7230992673251,4.11805891372612 L 116.34956921026684,5.875032507553326 L 110.36810836944002,10.922024305610401 L 109.66310446853363,8.006039137659995 A 173.4322393373202 173.4322393373202 0 0 1 77.80863214162417,12.63436895832723"/><text text-anchor="middle" pointer-events="none" font-size="8px" fill="#000000" x="66.78106378273239" y="15.349939808633195" transform="rotate(180 66.78106378273239 12.349939808633195)" font-family="sans-serif">road</text></g><g class="relationship" transform="translate(-4.53495732275011 66.45310824705551) rotate(310.69581646034067)"><path class="outline" fill="#A5ABB6" stroke="none" d="M 21.40063509461097,-12.933012701892217 L 21.90063509461097,-12.06698729810778 A 59.254142227931325 59.254142227931325 0 0 1 38.875026502876175,-18.63889840083162 L 38.661494094339574,-19.61583438159216 A 60.254142227931325 60.254142227931325 0 0 0 21.40063509461097,-12.933012701892217 Z M 60.721507650997246,-20.29999408267168 L 60.56892392641875,-19.31170353480949 A 59.254142227931325 59.254142227931325 0 0 1 77.91793847089488,-13.804283670785331 L 76.58181758870556,-11.11824923538104 L 84.40803896720311,-11.134340684910976 L 79.69943298048064,-17.385662917991052 L 78.36331209829132,-14.69962848258676 A 60.254142227931325 60.254142227931325 0 0 0 60.721507650997246,-20.29999408267168"/><text text-anchor="middle" pointer-events="none" font-size="8px" fill="#000000" x="49.67540772955894" y="-17.476820789481067" font-family="sans-serif">road</text></g><g class="relationship" transform="translate(-100.75054901102106 177.57427597927455) rotate(348.2137181972395)"><path class="outline" fill="#A5ABB6" stroke="none" d="M 21.40063509461097,12.933012701892217 L 21.90063509461097,12.06698729810778 A 189.47212899660428 189.47212899660428 0 0 0 104.25192030965673,37.04624262890849 L 104.18655566025502,38.04410407350318 A 190.47212899660428 190.47212899660428 0 0 1 21.40063509461097,12.933012701892217 Z M 123.56297459732687,38.32546505669322 L 123.52661087817856,37.326126435439306 A 189.47212899660428 189.47212899660428 0 0 0 206.56845960995847,14.748510691978888 L 205.14452838862317,12.10797667839252 L 212.96702751188255,11.866093511127563 L 208.46703457173888,18.269222710094045 L 207.04310335040358,15.628688696507679 A 190.47212899660428 190.47212899660428 0 0 1 123.56297459732687,38.32546505669322"/><text text-anchor="middle" pointer-events="none" font-size="8px" fill="#000000" x="113.87844426613078" y="40.93141430168998" font-family="sans-serif">trek</text></g><g class="relationship" transform="translate(-100.75054901102106 177.57427597927455) rotate(348.2137181972395)"><path class="outline" fill="#A5ABB6" stroke="none" d="M 25 0.5 L 90.75331693755113 0.5 L 90.75331693755113 -0.5 L 25 -0.5 Z M 137.21816068755112 0.5 L 202.97147762510227 0.5 L 202.97147762510227 3.5 L 209.97147762510227 0 L 202.97147762510227 -3.5 L 202.97147762510227 -0.5 L 137.21816068755112 -0.5 Z"/><text text-anchor="middle" pointer-events="none" font-size="8px" fill="#000000" x="113.98573881255113" y="3" font-family="sans-serif">twowheeler</text></g><g class="relationship" transform="translate(-100.75054901102106 177.57427597927455) rotate(348.2137181972395)"><path class="outline" fill="#A5ABB6" stroke="none" d="M 21.40063509461097,-12.933012701892217 L 21.90063509461097,-12.06698729810778 A 189.47212899660428 189.47212899660428 0 0 1 102.92072272236986,-36.95433414349583 L 102.84833225025568,-37.95171051154708 A 190.47212899660428 190.47212899660428 0 0 0 21.40063509461097,-12.933012701892217 Z M 124.90331647830565,-38.271966388899756 L 124.85991581423507,-37.272908641640754 A 189.47212899660428 189.47212899660428 0 0 1 206.56845960995847,-14.748510691978888 L 205.14452838862317,-12.10797667839252 L 212.96702751188255,-11.866093511127563 L 208.46703457173888,-18.269222710094045 L 207.04310335040358,-15.628688696507679 A 190.47212899660428 190.47212899660428 0 0 0 124.90331647830565,-38.271966388899756"/><text text-anchor="middle" pointer-events="none" font-size="8px" fill="#000000" x="113.87844426613083" y="-34.93141430168998" font-family="sans-serif">road</text></g><g class="relationship" transform="translate(129.2668658110906 129.57860767601477) rotate(404.75822570612115)"><path class="outline" fill="#A5ABB6" stroke="none" d="M 25 0.5 L 41.61596013716077 0.5 L 41.61596013716077 -0.5 L 25 -0.5 Z M 60.95189763716077 0.5 L 77.56785777432154 0.5 L 77.56785777432154 3.5 L 84.56785777432154 0 L 77.56785777432154 -3.5 L 77.56785777432154 -0.5 L 60.95189763716077 -0.5 Z"/><text text-anchor="middle" pointer-events="none" font-size="8px" fill="#000000" x="51.28392888716077" y="3" font-family="sans-serif">trek</text></g></g><g class="layer nodes"><g class="node" transform="translate(207.06928095967305,206.72716342595464)"><circle class="outline" cx="0" cy="0" r="25" fill="#F16667" stroke="#eb2728" stroke-width="2px"/><text text-anchor="middle" pointer-events="none" font-family="sans-serif" dy="1.5625" font-size="25" fill="#FFFFFF"/><text text-anchor="middle" pointer-events="none" y="5" font-size="10px" fill="#FFFFFF" font-family="sans-serif"> Sandak…</text></g><g class="node" transform="translate(301.67157178961395,139.00104475750453)"><circle class="outline" cx="0" cy="0" r="25" fill="#F16667" stroke="#eb2728" stroke-width="2px"/><text text-anchor="middle" pointer-events="none" font-family="sans-serif" dy="1.5625" font-size="25" fill="#FFFFFF"/><text text-anchor="middle" pointer-events="none" y="5" font-size="10px" fill="#FFFFFF" font-family="sans-serif"> Sabargr…</text></g><g class="node" transform="translate(176.49391256912736,-23.95170394204103)"><circle class="outline" cx="0" cy="0" r="25" fill="#D9C8AE" stroke="#c0a378" stroke-width="2px"/><text text-anchor="middle" pointer-events="none" font-family="sans-serif" dy="1.5625" font-size="25" fill="#604A0E"/><text text-anchor="middle" pointer-events="none" y="5" font-size="10px" fill="#604A0E" font-family="sans-serif"> Sirikhola</text></g><g class="node" transform="translate(284.5464306426211,16.82696675058032)"><circle class="outline" cx="0" cy="0" r="25" fill="#D9C8AE" stroke="#c0a378" stroke-width="2px"/><text text-anchor="middle" pointer-events="none" font-family="sans-serif" dy="1.5625" font-size="25" fill="#604A0E"/><text text-anchor="middle" pointer-events="none" y="5" font-size="10px" fill="#604A0E" font-family="sans-serif"> Rammam</text></g><g class="node" transform="translate(210.15390127165074,88.17308181261616)"><circle class="outline" cx="0" cy="0" r="25" fill="#D9C8AE" stroke="#c0a378" stroke-width="2px"/><text text-anchor="middle" pointer-events="none" font-family="sans-serif" dy="1.5625" font-size="25" fill="#604A0E"/><text text-anchor="middle" pointer-events="none" y="5" font-size="10px" fill="#604A0E" font-family="sans-serif"> Gurdum</text></g><g class="node" transform="translate(65.097801442758,-14.514400018215241)"><circle class="outline" cx="0" cy="0" r="25" fill="#8DCC93" stroke="#5db665" stroke-width="2px"/><text text-anchor="middle" pointer-events="none" font-family="sans-serif" dy="1.5625" font-size="25" fill="#604A0E"/><text text-anchor="middle" pointer-events="none" y="5" font-size="10px" fill="#604A0E" font-family="sans-serif"> Rimbik</text></g><g class="node" transform="translate(-115.35215614656789,-20.159910377176615)"><circle class="outline" cx="0" cy="0" r="25" fill="#D9C8AE" stroke="#c0a378" stroke-width="2px"/><text text-anchor="middle" pointer-events="none" font-family="sans-serif" dy="1.5625" font-size="25" fill="#604A0E"/><text text-anchor="middle" pointer-events="none" y="5" font-size="10px" fill="#604A0E" font-family="sans-serif"> Tumbling</text></g><g class="node" transform="translate(-4.53495732275011,66.45310824705551)"><circle class="outline" cx="0" cy="0" r="25" fill="#8DCC93" stroke="#5db665" stroke-width="2px"/><text text-anchor="middle" pointer-events="none" font-family="sans-serif" dy="1.5625" font-size="25" fill="#604A0E"/><text text-anchor="middle" pointer-events="none" y="5" font-size="10px" fill="#604A0E" font-family="sans-serif"> Darjeeling</text></g><g class="node" transform="translate(-100.75054901102106,177.57427597927455)"><circle class="outline" cx="0" cy="0" r="25" fill="#D9C8AE" stroke="#c0a378" stroke-width="2px"/><text text-anchor="middle" pointer-events="none" font-family="sans-serif" dy="1.5625" font-size="25" fill="#604A0E"/><text text-anchor="middle" pointer-events="none" y="5" font-size="10px" fill="#604A0E" font-family="sans-serif"> Gairibus</text></g><g class="node" transform="translate(129.2668658110906,129.57860767601477)"><circle class="outline" cx="0" cy="0" r="25" fill="#D9C8AE" stroke="#c0a378" stroke-width="2px"/><text text-anchor="middle" pointer-events="none" font-family="sans-serif" dy="1.5625" font-size="25" fill="#604A0E"/><text text-anchor="middle" pointer-events="none" y="5" font-size="10px" fill="#604A0E" font-family="sans-serif"> BhikeBh…</text></g></g></svg>