<svg xmlns="http://www.w3.org/2000/svg" width="486.5580139160156" height="76.65585327148438" viewBox="-137.54611206054688 21.32876205444336 486.5580139160156 76.65585327148438"><title>Neo4j Graph Visualization</title><desc>Created using Neo4j (http://www.neo4j.com/)</desc><g class="layer relationships"><g class="relationship" transform="translate(320.0119146986535 59.98671735332181) rotate(180.21496288519694)"><path class="outline" fill="#A5ABB6" stroke="none" d="M 21.40063509461097,12.933012701892217 L 21.90063509461097,12.06698729810778 A 130.6023341580806 130.6023341580806 0 0 0 54.3128320502889,25.35542347128255 L 54.06100676450531,26.323196185012392 A 131.6023341580806 131.6023341580806 0 0 1 21.40063509461097,12.933012701892217 Z M 115.44098977645403,27.49890135801577 L 115.22641008998067,26.522194872856076 A 130.6023341580806 130.6023341580806 0 0 0 148.12371292413945,14.484731948309157 L 146.72430660089375,11.831118950440029 L 154.5487109730417,11.661719360380737 L 149.98958802180036,18.022882612134662 L 148.59018169855466,15.369269614265534 A 131.6023341580806 131.6023341580806 0 0 1 115.44098977645403,27.49890135801577"/><text text-anchor="middle" pointer-events="none" font-size="8px" fill="#000000" x="84.69105817529386" y="33.04033841718369" transform="rotate(180 84.69105817529386 30.04033841718369)" font-family="sans-serif">PublicTransport</text></g><g class="relationship" transform="translate(143.35100543046542 59.32391605689535) rotate(181.63441007111572)"><path class="outline" fill="#A5ABB6" stroke="none" d="M 25 0.5 L 45.898515962694624 0.5 L 45.898515962694624 -0.5 L 25 -0.5 Z M 65.23445346269463 0.5 L 86.13296942538925 0.5 L 86.13296942538925 3.5 L 93.13296942538925 0 L 86.13296942538925 -3.5 L 86.13296942538925 -0.5 L 65.23445346269463 -0.5 Z"/><text text-anchor="middle" pointer-events="none" font-size="8px" fill="#000000" x="55.566484712694624" y="3" transform="rotate(180 55.566484712694624 0)" font-family="sans-serif">trek</text></g><g class="relationship" transform="translate(25.26609652555912 55.95453121987687) rotate(539.9282466240024)"><path class="outline" fill="#A5ABB6" stroke="none" d="M 25 0.5 L 53.738190995711335 0.5 L 53.738190995711335 -0.5 L 25 -0.5 Z M 73.07412849571134 0.5 L 101.81231949142267 0.5 L 101.81231949142267 3.5 L 108.81231949142267 0 L 101.81231949142267 -3.5 L 101.81231949142267 -0.5 L 73.07412849571134 -0.5 Z"/><text text-anchor="middle" pointer-events="none" font-size="8px" fill="#000000" x="63.406159745711335" y="3" transform="rotate(180 63.406159745711335 0)" font-family="sans-serif">trek</text></g><g class="relationship" transform="translate(320.0119146986535 59.98671735332181) rotate(180.21496288519694)"><path class="outline" fill="#A5ABB6" stroke="none" d="M 25 0.5 L 75.16310756097553 0.5 L 75.16310756097553 -0.5 L 25 -0.5 Z M 94.49904506097553 0.5 L 144.66215262195107 0.5 L 144.66215262195107 3.5 L 151.66215262195107 0 L 144.66215262195107 -3.5 L 144.66215262195107 -0.5 L 94.49904506097553 -0.5 Z"/><text text-anchor="middle" pointer-events="none" font-size="8px" fill="#000000" x="84.83107631097553" y="3" transform="rotate(180 84.83107631097553 0)" font-family="sans-serif">trek</text></g><g class="relationship" transform="translate(320.0119146986535 59.98671735332181) rotate(180.21496288519694)"><path class="outline" fill="#A5ABB6" stroke="none" d="M 21.40063509461097,-12.933012701892217 L 21.90063509461097,-12.06698729810778 A 130.6023341580806 130.6023341580806 0 0 1 73.76043838743304,-28.870860092313634 L 73.65752013660034,-29.86554991011893 A 131.6023341580806 131.6023341580806 0 0 0 21.40063509461097,-12.933012701892217 Z M 95.72319638499795,-30.2882077284831 L 95.65844529782414,-29.290306282091805 A 130.6023341580806 130.6023341580806 0 0 1 148.12371292413945,-14.484731948309157 L 146.72430660089375,-11.831118950440029 L 154.5487109730417,-11.661719360380737 L 149.98958802180036,-18.022882612134662 L 148.59018169855466,-15.369269614265534 A 131.6023341580806 131.6023341580806 0 0 0 95.72319638499795,-30.2882077284831"/><text text-anchor="middle" pointer-events="none" font-size="8px" fill="#000000" x="84.69105817529382" y="-27.04033841718369" transform="rotate(180 84.69105817529382 -30.04033841718369)" font-family="sans-serif">road</text></g></g><g class="layer nodes"><g class="node" transform="translate(320.0119146986535,59.98671735332181)"><circle class="outline" cx="0" cy="0" r="25" fill="#8DCC93" stroke="#5db665" stroke-width="2px"/><text text-anchor="middle" pointer-events="none" font-family="sans-serif" dy="1.5625" font-size="25" fill="#604A0E"/><text text-anchor="middle" pointer-events="none" y="5" font-size="10px" fill="#604A0E" font-family="sans-serif"> Darjeeling</text></g><g class="node" transform="translate(143.35100543046542,59.32391605689535)"><circle class="outline" cx="0" cy="0" r="25" fill="#8DCC93" stroke="#5db665" stroke-width="2px"/><text text-anchor="middle" pointer-events="none" font-family="sans-serif" dy="1.5625" font-size="25" fill="#604A0E"/><text text-anchor="middle" pointer-events="none" y="5" font-size="10px" fill="#604A0E" font-family="sans-serif"> Rimbik</text></g><g class="node" transform="translate(25.26609652555912,55.95453121987687)"><circle class="outline" cx="0" cy="0" r="25" fill="#D9C8AE" stroke="#c0a378" stroke-width="2px"/><text text-anchor="middle" pointer-events="none" font-family="sans-serif" dy="1.5625" font-size="25" fill="#604A0E"/><text text-anchor="middle" pointer-events="none" y="5" font-size="10px" fill="#604A0E" font-family="sans-serif"> BhikeBh…</text></g><g class="node" transform="translate(-108.54611803446518,56.12210871416097)"><circle class="outline" cx="0" cy="0" r="25" fill="#F16667" stroke="#eb2728" stroke-width="2px"/><text text-anchor="middle" pointer-events="none" font-family="sans-serif" dy="1.5625" font-size="25" fill="#FFFFFF"/><text text-anchor="middle" pointer-events="none" y="5" font-size="10px" fill="#FFFFFF" font-family="sans-serif"> Sandak…</text></g></g></svg>