<svg xmlns="http://www.w3.org/2000/svg" width="591.7620239257812" height="328.791748046875" viewBox="-193.9906463623047 -52.37615203857422 591.7620239257812 328.791748046875"><title>Neo4j Graph Visualization</title><desc>Created using Neo4j (http://www.neo4j.com/)</desc><g class="layer relationships"><g class="relationship" transform="translate(61.97233549425266 247.4155703032207) rotate(328.5011724851896)"><path class="outline" fill="#A5ABB6" stroke="none" d="M 25 0.5 L 119.49149562987625 0.5 L 119.49149562987625 -0.5 L 25 -0.5 Z M 165.05399562987625 0.5 L 259.5454912597525 0.5 L 259.5454912597525 3.5 L 266.5454912597525 0 L 259.5454912597525 -3.5 L 259.5454912597525 -0.5 L 165.05399562987625 -0.5 Z"/><text text-anchor="middle" pointer-events="none" font-size="8px" fill="#000000" x="142.27274562987625" y="3" font-family="sans-serif">ACTED_IN</text></g><g class="relationship" transform="translate(61.97233549425266 247.4155703032207) rotate(308.83762460653674)"><path class="outline" fill="#A5ABB6" stroke="none" d="M 25 0.5 L 74.74692142572012 0.5 L 74.74692142572012 -0.5 L 25 -0.5 Z M 120.30942142572012 0.5 L 170.05634285144023 0.5 L 170.05634285144023 3.5 L 177.05634285144023 0 L 170.05634285144023 -3.5 L 170.05634285144023 -0.5 L 120.30942142572012 -0.5 Z"/><text text-anchor="middle" pointer-events="none" font-size="8px" fill="#000000" x="97.52817142572012" y="3" font-family="sans-serif">ACTED_IN</text></g><g class="relationship" transform="translate(61.97233549425266 247.4155703032207) rotate(248.5961053599458)"><path class="outline" fill="#A5ABB6" stroke="none" d="M 25 0.5 L 76.43334632844747 0.5 L 76.43334632844747 -0.5 L 25 -0.5 Z M 121.99584632844747 0.5 L 173.42919265689494 0.5 L 173.42919265689494 3.5 L 180.42919265689494 0 L 173.42919265689494 -3.5 L 173.42919265689494 -0.5 L 121.99584632844747 -0.5 Z"/><text text-anchor="middle" pointer-events="none" font-size="8px" fill="#000000" x="99.21459632844747" y="3" transform="rotate(180 99.21459632844747 0)" font-family="sans-serif">ACTED_IN</text></g><g class="relationship" transform="translate(61.97233549425266 247.4155703032207) rotate(230.88487263744622)"><path class="outline" fill="#A5ABB6" stroke="none" d="M 25 0.5 L 96.24013841170162 0.5 L 96.24013841170162 -0.5 L 25 -0.5 Z M 141.80263841170162 0.5 L 213.04277682340324 0.5 L 213.04277682340324 3.5 L 220.04277682340324 0 L 213.04277682340324 -3.5 L 213.04277682340324 -0.5 L 141.80263841170162 -0.5 Z"/><text text-anchor="middle" pointer-events="none" font-size="8px" fill="#000000" x="119.02138841170162" y="3" transform="rotate(180 119.02138841170162 0)" font-family="sans-serif">ACTED_IN</text></g><g class="relationship" transform="translate(61.97233549425266 247.4155703032207) rotate(275.82051282324863)"><path class="outline" fill="#A5ABB6" stroke="none" d="M 25 0.5 L 65.87888966243048 0.5 L 65.87888966243048 -0.5 L 25 -0.5 Z M 111.44138966243048 0.5 L 152.32027932486096 0.5 L 152.32027932486096 3.5 L 159.32027932486096 0 L 152.32027932486096 -3.5 L 152.32027932486096 -0.5 L 111.44138966243048 -0.5 Z"/><text text-anchor="middle" pointer-events="none" font-size="8px" fill="#000000" x="88.66013966243048" y="3" font-family="sans-serif">ACTED_IN</text></g><g class="relationship" transform="translate(368.7713321229784 -16.52289377125399) rotate(477.5449114006975)"><path class="outline" fill="#A5ABB6" stroke="none" d="M 25 0.5 L 35.99475644166488 0.5 L 35.99475644166488 -0.5 L 25 -0.5 Z M 82.88538144166489 0.5 L 93.88013788332977 0.5 L 93.88013788332977 3.5 L 100.88013788332977 0 L 93.88013788332977 -3.5 L 93.88013788332977 -0.5 L 82.88538144166489 -0.5 Z"/><text text-anchor="middle" pointer-events="none" font-size="8px" fill="#000000" x="59.44006894166488" y="3" transform="rotate(180 59.44006894166488 0)" font-family="sans-serif">DIRECTED</text></g><g class="relationship" transform="translate(-164.99062653425494 216.37722214840977) rotate(340.3410129858697)"><path class="outline" fill="#A5ABB6" stroke="none" d="M 24.018736134675446,6.953439040707552 L 24.277555179777966,5.987513214418485 A 629.6856921442991 629.6856921442991 0 0 0 158.40835847440098,26.782564744103638 L 158.3625517384044,27.781515064658834 A 630.6856921442991 630.6856921442991 0 0 1 24.018736134675446,6.953439040707552 Z M 210.16972689483347,28.027012949687332 L 210.13338942524283,27.027673373615357 A 629.6856921442991 629.6856921442991 0 0 0 344.45524697742,7.504734447428808 L 343.7062874050334,4.599728499254112 L 351.3584207852254,6.241329769889006 L 345.45385974060224,11.378075711661737 L 344.7049001682156,8.47306976348704 A 630.6856921442991 630.6856921442991 0 0 1 210.16972689483347,28.027012949687332"/><text text-anchor="middle" pointer-events="none" font-size="8px" fill="#000000" x="184.26598676161484" y="30.936457538356308" font-family="sans-serif">PRODUCED</text></g><g class="relationship" transform="translate(-164.99062653425494 216.37722214840977) rotate(340.3410129858697)"><path class="outline" fill="#A5ABB6" stroke="none" d="M 24.018736134675446,-6.953439040707552 L 24.277555179777966,-5.987513214418485 A 629.6856921442991 629.6856921442991 0 0 1 166.399631029294,-27.098162859430545 L 166.36651518441118,-28.09761437942427 A 630.6856921442991 630.6856921442991 0 0 0 24.018736134675446,-6.953439040707552 Z M 202.16312717801793,-28.267243248573777 L 202.13948477954835,-27.267522769142374 A 629.6856921442991 629.6856921442991 0 0 1 344.45524697742,-7.504734447428808 L 343.7062874050334,-4.599728499254112 L 351.3584207852254,-6.241329769889006 L 345.45385974060224,-11.378075711661737 L 344.7049001682156,-8.47306976348704 A 630.6856921442991 630.6856921442991 0 0 0 202.16312717801793,-28.267243248573777"/><text text-anchor="middle" pointer-events="none" font-size="8px" fill="#000000" x="184.26598676161467" y="-24.936457538356308" font-family="sans-serif">WROTE</text></g><g class="relationship" transform="translate(-164.99062653425494 216.37722214840977) rotate(345.69178409339656)"><path class="outline" fill="#A5ABB6" stroke="none" d="M 25 0.5 L 218.44124144480332 0.5 L 218.44124144480332 -0.5 L 25 -0.5 Z M 265.3318664448033 0.5 L 458.77310788960665 0.5 L 458.77310788960665 3.5 L 465.77310788960665 0 L 458.77310788960665 -3.5 L 458.77310788960665 -0.5 L 265.3318664448033 -0.5 Z"/><text text-anchor="middle" pointer-events="none" font-size="8px" fill="#000000" x="241.88655394480332" y="3" font-family="sans-serif">DIRECTED</text></g><g class="relationship" transform="translate(-164.99062653425494 216.37722214840977) rotate(313.4902229918538)"><path class="outline" fill="#A5ABB6" stroke="none" d="M 25 0.5 L 83.47812441684214 0.5 L 83.47812441684214 -0.5 L 25 -0.5 Z M 130.36874941684215 0.5 L 188.84687383368427 0.5 L 188.84687383368427 3.5 L 195.84687383368427 0 L 188.84687383368427 -3.5 L 188.84687383368427 -0.5 L 130.36874941684215 -0.5 Z"/><text text-anchor="middle" pointer-events="none" font-size="8px" fill="#000000" x="106.92343691684214" y="3" font-family="sans-serif">DIRECTED</text></g><g class="relationship" transform="translate(-164.99062653425494 216.37722214840977) rotate(294.4614612797095)"><path class="outline" fill="#A5ABB6" stroke="none" d="M 25 0.5 L 60.441206015363846 0.5 L 60.441206015363846 -0.5 L 25 -0.5 Z M 107.33183101536385 0.5 L 142.7730370307277 0.5 L 142.7730370307277 3.5 L 149.7730370307277 0 L 142.7730370307277 -3.5 L 142.7730370307277 -0.5 L 107.33183101536385 -0.5 Z"/><text text-anchor="middle" pointer-events="none" font-size="8px" fill="#000000" x="83.88651851536385" y="3" font-family="sans-serif">DIRECTED</text></g><g class="relationship" transform="translate(-164.99062653425494 216.37722214840977) rotate(328.1968161582143)"><path class="outline" fill="#A5ABB6" stroke="none" d="M 25 0.5 L 117.5810518844589 0.5 L 117.5810518844589 -0.5 L 25 -0.5 Z M 164.4716768844589 0.5 L 257.0527287689178 0.5 L 257.0527287689178 3.5 L 264.0527287689178 0 L 257.0527287689178 -3.5 L 257.0527287689178 -0.5 L 164.4716768844589 -0.5 Z"/><text text-anchor="middle" pointer-events="none" font-size="8px" fill="#000000" x="141.0263643844589" y="3" font-family="sans-serif">DIRECTED</text></g><g class="relationship" transform="translate(113.75674717738605 -23.376148831572152) rotate(416.54664596351074)"><path class="outline" fill="#A5ABB6" stroke="none" d="M 24.018736134675446,6.953439040707552 L 24.277555179777966,5.987513214418485 A 163.10949202566522 163.10949202566522 0 0 0 38.74651494710293,9.167970011191812 L 38.576402939142355,10.15339474436405 A 164.10949202566522 164.10949202566522 0 0 1 24.018736134675446,6.953439040707552 Z M 90.29522391603838,10.810096665600838 L 90.15018766329501,9.82067032403208 A 163.10949202566522 163.10949202566522 0 0 0 104.6952375419202,7.00862014437381 L 103.9926081808486,4.092061902034031 L 111.61764500089163,5.8552446755966985 L 105.63207669001568,10.897364467493517 L 104.92944732894408,7.980806225153738 A 164.10949202566522 164.10949202566522 0 0 1 90.29522391603838,10.810096665600838"/><text text-anchor="middle" pointer-events="none" font-size="8px" fill="#000000" x="64.4161271440707" y="15.032146792795885" font-family="sans-serif">PRODUCED</text></g><g class="relationship" transform="translate(113.75674717738605 -23.376148831572152) rotate(416.54664596351074)"><path class="outline" fill="#A5ABB6" stroke="none" d="M 24.018736134675446,-6.953439040707552 L 24.277555179777966,-5.987513214418485 A 163.10949202566522 163.10949202566522 0 0 1 46.63971813016393,-10.332530950155274 L 46.51799817520428,-11.325095432979765 A 164.10949202566522 164.10949202566522 0 0 0 24.018736134675446,-6.953439040707552 Z M 82.326438433894,-11.779774620753159 L 82.22995991771896,-10.78443955359404 A 163.10949202566522 163.10949202566522 0 0 1 104.6952375419202,-7.00862014437381 L 103.9926081808486,-4.092061902034031 L 111.61764500089163,-5.8552446755966985 L 105.63207669001568,-10.897364467493517 L 104.92944732894408,-7.980806225153738 A 164.10949202566522 164.10949202566522 0 0 0 82.326438433894,-11.779774620753159"/><text text-anchor="middle" pointer-events="none" font-size="8px" fill="#000000" x="64.4161271440707" y="-9.032146792795885" font-family="sans-serif">WROTE</text></g><g class="relationship" transform="translate(113.75674717738605 -23.376148831572152) rotate(391.0457696425851)"><path class="outline" fill="#A5ABB6" stroke="none" d="M 25 0.5 L 87.90780394648968 0.5 L 87.90780394648968 -0.5 L 25 -0.5 Z M 134.79842894648968 0.5 L 197.70623289297936 0.5 L 197.70623289297936 3.5 L 204.70623289297936 0 L 197.70623289297936 -3.5 L 197.70623289297936 -0.5 L 134.79842894648968 -0.5 Z"/><text text-anchor="middle" pointer-events="none" font-size="8px" fill="#000000" x="111.35311644648968" y="3" font-family="sans-serif">DIRECTED</text></g><g class="relationship" transform="translate(113.75674717738605 -23.376148831572152) rotate(507.8940678312026)"><path class="outline" fill="#A5ABB6" stroke="none" d="M 25 0.5 L 47.87389965750393 0.5 L 47.87389965750393 -0.5 L 25 -0.5 Z M 94.76452465750393 0.5 L 117.63842431500785 0.5 L 117.63842431500785 3.5 L 124.63842431500785 0 L 117.63842431500785 -3.5 L 117.63842431500785 -0.5 L 94.76452465750393 -0.5 Z"/><text text-anchor="middle" pointer-events="none" font-size="8px" fill="#000000" x="71.31921215750393" y="3" transform="rotate(180 71.31921215750393 0)" font-family="sans-serif">DIRECTED</text></g><g class="relationship" transform="translate(113.75674717738605 -23.376148831572152) rotate(518.6506448851885)"><path class="outline" fill="#A5ABB6" stroke="none" d="M 25 0.5 L 83.8459939688047 0.5 L 83.8459939688047 -0.5 L 25 -0.5 Z M 130.7366189688047 0.5 L 189.5826129376094 0.5 L 189.5826129376094 3.5 L 196.5826129376094 0 L 189.5826129376094 -3.5 L 189.5826129376094 -0.5 L 130.7366189688047 -0.5 Z"/><text text-anchor="middle" pointer-events="none" font-size="8px" fill="#000000" x="107.2913064688047" y="3" transform="rotate(180 107.2913064688047 0)" font-family="sans-serif">DIRECTED</text></g><g class="relationship" transform="translate(113.75674717738605 -23.376148831572152) rotate(470.73332771066083)"><path class="outline" fill="#A5ABB6" stroke="none" d="M 25 0.5 L 26.68102654595512 0.5 L 26.68102654595512 -0.5 L 25 -0.5 Z M 59.79430779595512 0.5 L 61.47533434191024 0.5 L 61.47533434191024 3.5 L 68.47533434191024 0 L 61.47533434191024 -3.5 L 61.47533434191024 -0.5 L 59.79430779595512 -0.5 Z"/><text text-anchor="middle" pointer-events="none" font-size="8px" fill="#000000" x="43.23766717095512" y="3" transform="rotate(180 43.23766717095512 0)" font-family="sans-serif">DIRE…</text></g><g class="relationship" transform="translate(284.3863219516836 242.3511282561471) rotate(237.85964458725095)"><path class="outline" fill="#A5ABB6" stroke="none" d="M 25 0.5 L 63.00037670198583 0.5 L 63.00037670198583 -0.5 L 25 -0.5 Z M 109.89100170198583 0.5 L 147.89137840397166 0.5 L 147.89137840397166 3.5 L 154.89137840397166 0 L 147.89137840397166 -3.5 L 147.89137840397166 -0.5 L 109.89100170198583 -0.5 Z"/><text text-anchor="middle" pointer-events="none" font-size="8px" fill="#000000" x="86.44568920198583" y="3" transform="rotate(180 86.44568920198583 0)" font-family="sans-serif">DIRECTED</text></g></g><g class="layer nodes"><g class="node" transform="translate(61.97233549425266,247.4155703032207)"><circle class="outline" cx="0" cy="0" r="25" fill="#F79767" stroke="#f36924" stroke-width="2px"/><text text-anchor="middle" pointer-events="none" font-family="sans-serif" dy="1.5625" font-size="25" fill="#FFFFFF"/><text text-anchor="middle" pointer-events="none" font-family="sans-serif" dy="1.5625" font-size="25" fill="#FFFFFF"/><text text-anchor="middle" pointer-events="none" y="0" font-size="10px" fill="#FFFFFF" font-family="sans-serif"> Hugo</text><text text-anchor="middle" pointer-events="none" y="10" font-size="10px" fill="#FFFFFF" font-family="sans-serif"> Weaving</text></g><g class="node" transform="translate(310.55884830913465,95.08855654523055)"><circle class="outline" cx="0" cy="0" r="25" fill="#57C7E3" stroke="#23b3d7" stroke-width="2px"/><text text-anchor="middle" pointer-events="none" font-family="sans-serif" dy="1.5625" font-size="25" fill="#FFFFFF"/><text text-anchor="middle" pointer-events="none" font-family="sans-serif" dy="1.5625" font-size="25" fill="#FFFFFF"/><text text-anchor="middle" pointer-events="none" y="0" font-size="10px" fill="#FFFFFF" font-family="sans-serif"> Cloud</text><text text-anchor="middle" pointer-events="none" y="10" font-size="10px" fill="#FFFFFF" font-family="sans-serif"> Atlas</text></g><g class="node" transform="translate(368.7713321229784,-16.52289377125399)"><circle class="outline" cx="0" cy="0" r="25" fill="#F79767" stroke="#f36924" stroke-width="2px"/><text text-anchor="middle" pointer-events="none" font-family="sans-serif" dy="1.5625" font-size="25" fill="#FFFFFF"/><text text-anchor="middle" pointer-events="none" font-family="sans-serif" dy="1.5625" font-size="25" fill="#FFFFFF"/><text text-anchor="middle" pointer-events="none" y="0" font-size="10px" fill="#FFFFFF" font-family="sans-serif"> Tom</text><text text-anchor="middle" pointer-events="none" y="10" font-size="10px" fill="#FFFFFF" font-family="sans-serif"> Tykwer</text></g><g class="node" transform="translate(-164.99062653425494,216.37722214840977)"><circle class="outline" cx="0" cy="0" r="25" fill="#F79767" stroke="#f36924" stroke-width="2px"/><text text-anchor="middle" pointer-events="none" font-family="sans-serif" dy="1.5625" font-size="25" fill="#FFFFFF"/><text text-anchor="middle" pointer-events="none" font-family="sans-serif" dy="1.5625" font-size="25" fill="#FFFFFF"/><text text-anchor="middle" pointer-events="none" y="0" font-size="10px" fill="#FFFFFF" font-family="sans-serif"> Lana</text><text text-anchor="middle" pointer-events="none" y="10" font-size="10px" fill="#FFFFFF" font-family="sans-serif"> Wacho…</text></g><g class="node" transform="translate(113.75674717738605,-23.376148831572152)"><circle class="outline" cx="0" cy="0" r="25" fill="#F79767" stroke="#f36924" stroke-width="2px"/><text text-anchor="middle" pointer-events="none" font-family="sans-serif" dy="1.5625" font-size="25" fill="#FFFFFF"/><text text-anchor="middle" pointer-events="none" font-family="sans-serif" dy="1.5625" font-size="25" fill="#FFFFFF"/><text text-anchor="middle" pointer-events="none" y="0" font-size="10px" fill="#FFFFFF" font-family="sans-serif"> Lilly</text><text text-anchor="middle" pointer-events="none" y="10" font-size="10px" fill="#FFFFFF" font-family="sans-serif"> Wacho…</text></g><g class="node" transform="translate(188.6849891861131,90.02856613557856)"><circle class="outline" cx="0" cy="0" r="25" fill="#57C7E3" stroke="#23b3d7" stroke-width="2px"/><text text-anchor="middle" pointer-events="none" font-family="sans-serif" dy="1.5625" font-size="25" fill="#FFFFFF"/><text text-anchor="middle" pointer-events="none" font-family="sans-serif" dy="1.5625" font-size="25" fill="#FFFFFF"/><text text-anchor="middle" pointer-events="none" y="0" font-size="10px" fill="#FFFFFF" font-family="sans-serif"> V for</text><text text-anchor="middle" pointer-events="none" y="10" font-size="10px" fill="#FFFFFF" font-family="sans-serif"> Vendetta</text></g><g class="node" transform="translate(284.3863219516836,242.3511282561471)"><circle class="outline" cx="0" cy="0" r="25" fill="#F79767" stroke="#f36924" stroke-width="2px"/><text text-anchor="middle" pointer-events="none" font-family="sans-serif" dy="1.5625" font-size="25" fill="#FFFFFF"/><text text-anchor="middle" pointer-events="none" font-family="sans-serif" dy="1.5625" font-size="25" fill="#FFFFFF"/><text text-anchor="middle" pointer-events="none" y="0" font-size="10px" fill="#FFFFFF" font-family="sans-serif"> James</text><text text-anchor="middle" pointer-events="none" y="10" font-size="10px" fill="#FFFFFF" font-family="sans-serif"> Marshall</text></g><g class="node" transform="translate(-12.997008732277788,56.15462127831482)"><circle class="outline" cx="0" cy="0" r="25" fill="#57C7E3" stroke="#23b3d7" stroke-width="2px"/><text text-anchor="middle" pointer-events="none" font-family="sans-serif" dy="1.5625" font-size="25" fill="#FFFFFF"/><text text-anchor="middle" pointer-events="none" font-family="sans-serif" dy="1.5625" font-size="25" fill="#FFFFFF"/><text text-anchor="middle" pointer-events="none" font-family="sans-serif" dy="1.5625" font-size="25" fill="#FFFFFF"/><text text-anchor="middle" pointer-events="none" y="-5" font-size="10px" fill="#FFFFFF" font-family="sans-serif"> The</text><text text-anchor="middle" pointer-events="none" y="5" font-size="10px" fill="#FFFFFF" font-family="sans-serif"> Matrix</text><text text-anchor="middle" pointer-events="none" y="15" font-size="10px" fill="#FFFFFF" font-family="sans-serif"> Revol…</text></g><g class="node" transform="translate(-92.62041793019596,57.29181307658729)"><circle class="outline" cx="0" cy="0" r="25" fill="#57C7E3" stroke="#23b3d7" stroke-width="2px"/><text text-anchor="middle" pointer-events="none" font-family="sans-serif" dy="1.5625" font-size="25" fill="#FFFFFF"/><text text-anchor="middle" pointer-events="none" font-family="sans-serif" dy="1.5625" font-size="25" fill="#FFFFFF"/><text text-anchor="middle" pointer-events="none" font-family="sans-serif" dy="1.5625" font-size="25" fill="#FFFFFF"/><text text-anchor="middle" pointer-events="none" y="-5" font-size="10px" fill="#FFFFFF" font-family="sans-serif"> The</text><text text-anchor="middle" pointer-events="none" y="5" font-size="10px" fill="#FFFFFF" font-family="sans-serif"> Matrix</text><text text-anchor="middle" pointer-events="none" y="15" font-size="10px" fill="#FFFFFF" font-family="sans-serif"> Reloa…</text></g><g class="node" transform="translate(80.66471106835061,64.04556058027931)"><circle class="outline" cx="0" cy="0" r="25" fill="#57C7E3" stroke="#23b3d7" stroke-width="2px"/><text text-anchor="middle" pointer-events="none" font-family="sans-serif" dy="1.5625" font-size="25" fill="#FFFFFF"/><text text-anchor="middle" pointer-events="none" font-family="sans-serif" dy="1.5625" font-size="25" fill="#FFFFFF"/><text text-anchor="middle" pointer-events="none" y="0" font-size="10px" fill="#FFFFFF" font-family="sans-serif"> The</text><text text-anchor="middle" pointer-events="none" y="10" font-size="10px" fill="#FFFFFF" font-family="sans-serif"> Matrix</text></g></g></svg>