<svg xmlns="http://www.w3.org/2000/svg" width="572.58349609375" height="493.0614929199219" viewBox="-370.3447570800781 -98.74526977539062 572.58349609375 493.0614929199219"><title>Neo4j Graph Visualization</title><desc>Created using Neo4j (http://www.neo4j.com/)</desc><g class="layer relationships"><g class="relationship" transform="translate(-134.3958865699563 141.73590770135243) rotate(412.8872079933737)"><path class="outline" fill="#A5ABB6" stroke="none" d="M 25 0.5 L 40.90067114353812 0.5 L 40.90067114353812 -0.5 L 25 -0.5 Z M 86.46317114353812 0.5 L 102.36384228707624 0.5 L 102.36384228707624 3.5 L 109.36384228707624 0 L 102.36384228707624 -3.5 L 102.36384228707624 -0.5 L 86.46317114353812 -0.5 Z"/><text text-anchor="middle" pointer-events="none" font-size="8px" fill="#000000" x="63.68192114353812" y="3" font-family="sans-serif">ACTED_IN</text></g><g class="relationship" transform="translate(-134.3958865699563 141.73590770135243) rotate(351.55726124490275)"><path class="outline" fill="#A5ABB6" stroke="none" d="M 25 0.5 L 57.69199837825562 0.5 L 57.69199837825562 -0.5 L 25 -0.5 Z M 103.25449837825562 0.5 L 135.94649675651124 0.5 L 135.94649675651124 3.5 L 142.94649675651124 0 L 135.94649675651124 -3.5 L 135.94649675651124 -0.5 L 103.25449837825562 -0.5 Z"/><text text-anchor="middle" pointer-events="none" font-size="8px" fill="#000000" x="80.47324837825562" y="3" font-family="sans-serif">ACTED_IN</text></g><g class="relationship" transform="translate(-134.3958865699563 141.73590770135243) rotate(203.24897828369973)"><path class="outline" fill="#A5ABB6" stroke="none" d="M 25 0.5 L 73.71657602915383 0.5 L 73.71657602915383 -0.5 L 25 -0.5 Z M 119.27907602915383 0.5 L 167.99565205830766 0.5 L 167.99565205830766 3.5 L 174.99565205830766 0 L 167.99565205830766 -3.5 L 167.99565205830766 -0.5 L 119.27907602915383 -0.5 Z"/><text text-anchor="middle" pointer-events="none" font-size="8px" fill="#000000" x="96.49782602915383" y="3" transform="rotate(180 96.49782602915383 0)" font-family="sans-serif">ACTED_IN</text></g><g class="relationship" transform="translate(-134.3958865699563 141.73590770135243) rotate(222.24073339229756)"><path class="outline" fill="#A5ABB6" stroke="none" d="M 25 0.5 L 34.80458753600377 0.5 L 34.80458753600377 -0.5 L 25 -0.5 Z M 80.36708753600377 0.5 L 90.17167507200755 0.5 L 90.17167507200755 3.5 L 97.17167507200755 0 L 90.17167507200755 -3.5 L 90.17167507200755 -0.5 L 80.36708753600377 -0.5 Z"/><text text-anchor="middle" pointer-events="none" font-size="8px" fill="#000000" x="57.58583753600377" y="3" transform="rotate(180 57.58583753600377 0)" font-family="sans-serif">ACTED_IN</text></g><g class="relationship" transform="translate(-134.3958865699563 141.73590770135243) rotate(275.8754428896074)"><path class="outline" fill="#A5ABB6" stroke="none" d="M 25 0.5 L 26.641436262264897 0.5 L 26.641436262264897 -0.5 L 25 -0.5 Z M 56.6414362622649 0.5 L 58.28287252452979 0.5 L 58.28287252452979 3.5 L 65.2828725245298 0 L 58.28287252452979 -3.5 L 58.28287252452979 -0.5 L 56.6414362622649 -0.5 Z"/><text text-anchor="middle" pointer-events="none" font-size="8px" fill="#000000" x="41.6414362622649" y="3" font-family="sans-serif">ACT…</text></g><g class="relationship" transform="translate(36.013634423450654 342.09837974101436) rotate(226.21693777660727)"><path class="outline" fill="#A5ABB6" stroke="none" d="M 25 0.5 L 38.274617375106956 0.5 L 38.274617375106956 -0.5 L 25 -0.5 Z M 83.83711737510696 0.5 L 97.11173475021391 0.5 L 97.11173475021391 3.5 L 104.11173475021391 0 L 97.11173475021391 -3.5 L 97.11173475021391 -0.5 L 83.83711737510696 -0.5 Z"/><text text-anchor="middle" pointer-events="none" font-size="8px" fill="#000000" x="61.055867375106956" y="3" transform="rotate(180 61.055867375106956 0)" font-family="sans-serif">ACTED_IN</text></g><g class="relationship" transform="translate(-52.471795564918786 365.316188262159) rotate(269.58131979843665)"><path class="outline" fill="#A5ABB6" stroke="none" d="M 25 0.5 L 31.93627297235316 0.5 L 31.93627297235316 -0.5 L 25 -0.5 Z M 77.49877297235315 0.5 L 84.43504594470632 0.5 L 84.43504594470632 3.5 L 91.43504594470632 0 L 84.43504594470632 -3.5 L 84.43504594470632 -0.5 L 77.49877297235315 -0.5 Z"/><text text-anchor="middle" pointer-events="none" font-size="8px" fill="#000000" x="54.71752297235316" y="3" transform="rotate(180 54.71752297235316 0)" font-family="sans-serif">ACTED_IN</text></g><g class="relationship" transform="translate(71.41017274966764 276.4549180972457) rotate(192.4641249061924)"><path class="outline" fill="#A5ABB6" stroke="none" d="M 25 0.5 L 37.59051826022469 0.5 L 37.59051826022469 -0.5 L 25 -0.5 Z M 83.15301826022468 0.5 L 95.74353652044938 0.5 L 95.74353652044938 3.5 L 102.74353652044938 0 L 95.74353652044938 -3.5 L 95.74353652044938 -0.5 L 83.15301826022468 -0.5 Z"/><text text-anchor="middle" pointer-events="none" font-size="8px" fill="#000000" x="60.37176826022469" y="3" transform="rotate(180 60.37176826022469 0)" font-family="sans-serif">ACTED_IN</text></g><g class="relationship" transform="translate(173.2386407436274 118.37156044046439) rotate(180.52380160911218)"><path class="outline" fill="#A5ABB6" stroke="none" d="M 25 0.5 L 44.475732653554545 0.5 L 44.475732653554545 -0.5 L 25 -0.5 Z M 90.03823265355454 0.5 L 109.51396530710909 0.5 L 109.51396530710909 3.5 L 116.51396530710909 0 L 109.51396530710909 -3.5 L 109.51396530710909 -0.5 L 90.03823265355454 -0.5 Z"/><text text-anchor="middle" pointer-events="none" font-size="8px" fill="#000000" x="67.25698265355454" y="3" transform="rotate(180 67.25698265355454 0)" font-family="sans-serif">ACTED_IN</text></g><g class="relationship" transform="translate(157.92873236037232 55.45561180227744) rotate(513.9738590072277)"><path class="outline" fill="#A5ABB6" stroke="none" d="M 25 0.5 L 43.93853260436698 0.5 L 43.93853260436698 -0.5 L 25 -0.5 Z M 89.50103260436698 0.5 L 108.43956520873397 0.5 L 108.43956520873397 3.5 L 115.43956520873397 0 L 108.43956520873397 -3.5 L 108.43956520873397 -0.5 L 89.50103260436698 -0.5 Z"/><text text-anchor="middle" pointer-events="none" font-size="8px" fill="#000000" x="66.71978260436698" y="3" transform="rotate(180 66.71978260436698 0)" font-family="sans-serif">ACTED_IN</text></g><g class="relationship" transform="translate(147.9197081624182 182.46134656759963) rotate(209.36791098115134)"><path class="outline" fill="#A5ABB6" stroke="none" d="M 25 0.5 L 40.38004529133855 0.5 L 40.38004529133855 -0.5 L 25 -0.5 Z M 85.94254529133855 0.5 L 101.3225905826771 0.5 L 101.3225905826771 3.5 L 108.3225905826771 0 L 101.3225905826771 -3.5 L 101.3225905826771 -0.5 L 85.94254529133855 -0.5 Z"/><text text-anchor="middle" pointer-events="none" font-size="8px" fill="#000000" x="63.16129529133855" y="3" transform="rotate(180 63.16129529133855 0)" font-family="sans-serif">ACTED_IN</text></g><g class="relationship" transform="translate(108.90712245752081 7.991537336330689) rotate(485.27869547156496)"><path class="outline" fill="#A5ABB6" stroke="none" d="M 25 0.5 L 40.53199846051713 0.5 L 40.53199846051713 -0.5 L 25 -0.5 Z M 86.09449846051713 0.5 L 101.62649692103426 0.5 L 101.62649692103426 3.5 L 108.62649692103426 0 L 101.62649692103426 -3.5 L 101.62649692103426 -0.5 L 86.09449846051713 -0.5 Z"/><text text-anchor="middle" pointer-events="none" font-size="8px" fill="#000000" x="63.31324846051713" y="3" transform="rotate(180 63.31324846051713 0)" font-family="sans-serif">ACTED_IN</text></g><g class="relationship" transform="translate(-245.7788045785738 -53.07640090410799) rotate(481.98934531602976)"><path class="outline" fill="#A5ABB6" stroke="none" d="M 25 0.5 L 42.0256482554456 0.5 L 42.0256482554456 -0.5 L 25 -0.5 Z M 87.5881482554456 0.5 L 104.6137965108912 0.5 L 104.6137965108912 3.5 L 111.6137965108912 0 L 104.6137965108912 -3.5 L 104.6137965108912 -0.5 L 87.5881482554456 -0.5 Z"/><text text-anchor="middle" pointer-events="none" font-size="8px" fill="#000000" x="64.8068982554456" y="3" transform="rotate(180 64.8068982554456 0)" font-family="sans-serif">ACTED_IN</text></g><g class="relationship" transform="translate(-245.7788045785738 -53.07640090410799) rotate(439.47471956353263)"><path class="outline" fill="#A5ABB6" stroke="none" d="M 25 0.5 L 31.024328804155864 0.5 L 31.024328804155864 -0.5 L 25 -0.5 Z M 76.58682880415586 0.5 L 82.61115760831173 0.5 L 82.61115760831173 3.5 L 89.61115760831173 0 L 82.61115760831173 -3.5 L 82.61115760831173 -0.5 L 76.58682880415586 -0.5 Z"/><text text-anchor="middle" pointer-events="none" font-size="8px" fill="#000000" x="53.805578804155864" y="3" font-family="sans-serif">ACTED_IN</text></g><g class="relationship" transform="translate(-245.7788045785738 -53.07640090410799) rotate(401.0395155790773)"><path class="outline" fill="#A5ABB6" stroke="none" d="M 25 0.5 L 53.68144378371845 0.5 L 53.68144378371845 -0.5 L 25 -0.5 Z M 99.24394378371845 0.5 L 127.9253875674369 0.5 L 127.9253875674369 3.5 L 134.9253875674369 0 L 127.9253875674369 -3.5 L 127.9253875674369 -0.5 L 99.24394378371845 -0.5 Z"/><text text-anchor="middle" pointer-events="none" font-size="8px" fill="#000000" x="76.46269378371845" y="3" font-family="sans-serif">ACTED_IN</text></g><g class="relationship" transform="translate(-341.3447288451666 -34.9464667380732) rotate(436.6507301115262)"><path class="outline" fill="#A5ABB6" stroke="none" d="M 25 0.5 L 26.169739737110646 0.5 L 26.169739737110646 -0.5 L 25 -0.5 Z M 67.28302098711065 0.5 L 68.45276072422129 0.5 L 68.45276072422129 3.5 L 75.45276072422129 0 L 68.45276072422129 -3.5 L 68.45276072422129 -0.5 L 67.28302098711065 -0.5 Z"/><text text-anchor="middle" pointer-events="none" font-size="8px" fill="#000000" x="46.726380362110646" y="3" font-family="sans-serif">ACTED…</text></g><g class="relationship" transform="translate(-341.3447288451666 -34.9464667380732) rotate(399.0627560403151)"><path class="outline" fill="#A5ABB6" stroke="none" d="M 25 0.5 L 48.74028330055164 0.5 L 48.74028330055164 -0.5 L 25 -0.5 Z M 94.30278330055164 0.5 L 118.04306660110328 0.5 L 118.04306660110328 3.5 L 125.04306660110328 0 L 118.04306660110328 -3.5 L 118.04306660110328 -0.5 L 94.30278330055164 -0.5 Z"/><text text-anchor="middle" pointer-events="none" font-size="8px" fill="#000000" x="71.52153330055164" y="3" font-family="sans-serif">ACTED_IN</text></g><g class="relationship" transform="translate(-341.3447288451666 -34.9464667380732) rotate(381.89216261166644)"><path class="outline" fill="#A5ABB6" stroke="none" d="M 25 0.5 L 90.2149906869629 0.5 L 90.2149906869629 -0.5 L 25 -0.5 Z M 135.7774906869629 0.5 L 200.9924813739258 0.5 L 200.9924813739258 3.5 L 207.9924813739258 0 L 200.9924813739258 -3.5 L 200.9924813739258 -0.5 L 135.7774906869629 -0.5 Z"/><text text-anchor="middle" pointer-events="none" font-size="8px" fill="#000000" x="112.9962406869629" y="3" font-family="sans-serif">ACTED_IN</text></g><g class="relationship" transform="translate(-105.49009478752055 -69.74526669724654) rotate(508.06752323802573)"><path class="outline" fill="#A5ABB6" stroke="none" d="M 25 0.5 L 99.00946426785877 0.5 L 99.00946426785877 -0.5 L 25 -0.5 Z M 144.5719642678588 0.5 L 218.58142853571755 0.5 L 218.58142853571755 3.5 L 225.58142853571755 0 L 218.58142853571755 -3.5 L 218.58142853571755 -0.5 L 144.5719642678588 -0.5 Z"/><text text-anchor="middle" pointer-events="none" font-size="8px" fill="#000000" x="121.79071426785877" y="3" transform="rotate(180 121.79071426785877 0)" font-family="sans-serif">ACTED_IN</text></g><g class="relationship" transform="translate(-105.49009478752055 -69.74526669724654) rotate(492.69773264362675)"><path class="outline" fill="#A5ABB6" stroke="none" d="M 25 0.5 L 61.72006339476299 0.5 L 61.72006339476299 -0.5 L 25 -0.5 Z M 107.28256339476299 0.5 L 144.00262678952598 0.5 L 144.00262678952598 3.5 L 151.00262678952598 0 L 144.00262678952598 -3.5 L 144.00262678952598 -0.5 L 107.28256339476299 -0.5 Z"/><text text-anchor="middle" pointer-events="none" font-size="8px" fill="#000000" x="84.50131339476299" y="3" transform="rotate(180 84.50131339476299 0)" font-family="sans-serif">ACTED_IN</text></g><g class="relationship" transform="translate(-105.49009478752055 -69.74526669724654) rotate(459.18036880262525)"><path class="outline" fill="#A5ABB6" stroke="none" d="M 25 0.5 L 35.3444024823856 0.5 L 35.3444024823856 -0.5 L 25 -0.5 Z M 80.90690248238559 0.5 L 91.2513049647712 0.5 L 91.2513049647712 3.5 L 98.2513049647712 0 L 91.2513049647712 -3.5 L 91.2513049647712 -0.5 L 80.90690248238559 -0.5 Z"/><text text-anchor="middle" pointer-events="none" font-size="8px" fill="#000000" x="58.1256524823856" y="3" transform="rotate(180 58.1256524823856 0)" font-family="sans-serif">ACTED_IN</text></g><g class="relationship" transform="translate(-21.048079899128677 -27.055161629368985) rotate(502.81334145148185)"><path class="outline" fill="#A5ABB6" stroke="none" d="M 25 0.5 L 39.056847216593084 0.5 L 39.056847216593084 -0.5 L 25 -0.5 Z M 84.61934721659308 0.5 L 98.67619443318617 0.5 L 98.67619443318617 3.5 L 105.67619443318617 0 L 98.67619443318617 -3.5 L 98.67619443318617 -0.5 L 84.61934721659308 -0.5 Z"/><text text-anchor="middle" pointer-events="none" font-size="8px" fill="#000000" x="61.838097216593084" y="3" transform="rotate(180 61.838097216593084 0)" font-family="sans-serif">ACTED_IN</text></g></g><g class="layer nodes"><g class="node" transform="translate(-134.3958865699563,141.73590770135243)"><circle class="outline" cx="0" cy="0" r="25" fill="#F79767" stroke="#f36924" stroke-width="2px"/><text text-anchor="middle" pointer-events="none" font-family="sans-serif" dy="1.5625" font-size="25" fill="#FFFFFF"/><text text-anchor="middle" pointer-events="none" font-family="sans-serif" dy="1.5625" font-size="25" fill="#FFFFFF"/><text text-anchor="middle" pointer-events="none" y="0" font-size="10px" fill="#FFFFFF" font-family="sans-serif"> Hugo</text><text text-anchor="middle" pointer-events="none" y="10" font-size="10px" fill="#FFFFFF" font-family="sans-serif"> Weaving</text></g><g class="node" transform="translate(-53.32261939654689,248.88425096421054)"><circle class="outline" cx="0" cy="0" r="25" fill="#57C7E3" stroke="#23b3d7" stroke-width="2px"/><text text-anchor="middle" pointer-events="none" font-family="sans-serif" dy="1.5625" font-size="25" fill="#FFFFFF"/><text text-anchor="middle" pointer-events="none" font-family="sans-serif" dy="1.5625" font-size="25" fill="#FFFFFF"/><text text-anchor="middle" pointer-events="none" y="0" font-size="10px" fill="#FFFFFF" font-family="sans-serif"> Cloud</text><text text-anchor="middle" pointer-events="none" y="10" font-size="10px" fill="#FFFFFF" font-family="sans-serif"> Atlas</text></g><g class="node" transform="translate(36.013634423450654,342.09837974101436)"><circle class="outline" cx="0" cy="0" r="25" fill="#F79767" stroke="#f36924" stroke-width="2px"/><text text-anchor="middle" pointer-events="none" font-family="sans-serif" dy="1.5625" font-size="25" fill="#FFFFFF"/><text text-anchor="middle" pointer-events="none" font-family="sans-serif" dy="1.5625" font-size="25" fill="#FFFFFF"/><text text-anchor="middle" pointer-events="none" y="0" font-size="10px" fill="#FFFFFF" font-family="sans-serif"> Tom</text><text text-anchor="middle" pointer-events="none" y="10" font-size="10px" fill="#FFFFFF" font-family="sans-serif"> Hanks</text></g><g class="node" transform="translate(-52.471795564918786,365.316188262159)"><circle class="outline" cx="0" cy="0" r="25" fill="#F79767" stroke="#f36924" stroke-width="2px"/><text text-anchor="middle" pointer-events="none" font-family="sans-serif" dy="1.5625" font-size="25" fill="#FFFFFF"/><text text-anchor="middle" pointer-events="none" font-family="sans-serif" dy="1.5625" font-size="25" fill="#FFFFFF"/><text text-anchor="middle" pointer-events="none" y="0" font-size="10px" fill="#FFFFFF" font-family="sans-serif"> Jim</text><text text-anchor="middle" pointer-events="none" y="10" font-size="10px" fill="#FFFFFF" font-family="sans-serif"> Broadb…</text></g><g class="node" transform="translate(71.41017274966764,276.4549180972457)"><circle class="outline" cx="0" cy="0" r="25" fill="#F79767" stroke="#f36924" stroke-width="2px"/><text text-anchor="middle" pointer-events="none" font-family="sans-serif" dy="1.5625" font-size="25" fill="#FFFFFF"/><text text-anchor="middle" pointer-events="none" font-family="sans-serif" dy="1.5625" font-size="25" fill="#FFFFFF"/><text text-anchor="middle" pointer-events="none" y="0" font-size="10px" fill="#FFFFFF" font-family="sans-serif"> Halle</text><text text-anchor="middle" pointer-events="none" y="10" font-size="10px" fill="#FFFFFF" font-family="sans-serif"> Berry</text></g><g class="node" transform="translate(31.730589073642037,117.07784891681372)"><circle class="outline" cx="0" cy="0" r="25" fill="#57C7E3" stroke="#23b3d7" stroke-width="2px"/><text text-anchor="middle" pointer-events="none" font-family="sans-serif" dy="1.5625" font-size="25" fill="#FFFFFF"/><text text-anchor="middle" pointer-events="none" font-family="sans-serif" dy="1.5625" font-size="25" fill="#FFFFFF"/><text text-anchor="middle" pointer-events="none" y="0" font-size="10px" fill="#FFFFFF" font-family="sans-serif"> V for</text><text text-anchor="middle" pointer-events="none" y="10" font-size="10px" fill="#FFFFFF" font-family="sans-serif"> Vendetta</text></g><g class="node" transform="translate(173.2386407436274,118.37156044046439)"><circle class="outline" cx="0" cy="0" r="25" fill="#F79767" stroke="#f36924" stroke-width="2px"/><text text-anchor="middle" pointer-events="none" font-family="sans-serif" dy="1.5625" font-size="25" fill="#FFFFFF"/><text text-anchor="middle" pointer-events="none" y="5" font-size="10px" fill="#FFFFFF" font-family="sans-serif"> John Hurt</text></g><g class="node" transform="translate(157.92873236037232,55.45561180227744)"><circle class="outline" cx="0" cy="0" r="25" fill="#F79767" stroke="#f36924" stroke-width="2px"/><text text-anchor="middle" pointer-events="none" font-family="sans-serif" dy="1.5625" font-size="25" fill="#FFFFFF"/><text text-anchor="middle" pointer-events="none" font-family="sans-serif" dy="1.5625" font-size="25" fill="#FFFFFF"/><text text-anchor="middle" pointer-events="none" y="0" font-size="10px" fill="#FFFFFF" font-family="sans-serif"> Stephen</text><text text-anchor="middle" pointer-events="none" y="10" font-size="10px" fill="#FFFFFF" font-family="sans-serif"> Rea</text></g><g class="node" transform="translate(147.9197081624182,182.46134656759963)"><circle class="outline" cx="0" cy="0" r="25" fill="#F79767" stroke="#f36924" stroke-width="2px"/><text text-anchor="middle" pointer-events="none" font-family="sans-serif" dy="1.5625" font-size="25" fill="#FFFFFF"/><text text-anchor="middle" pointer-events="none" font-family="sans-serif" dy="1.5625" font-size="25" fill="#FFFFFF"/><text text-anchor="middle" pointer-events="none" y="0" font-size="10px" fill="#FFFFFF" font-family="sans-serif"> Natalie</text><text text-anchor="middle" pointer-events="none" y="10" font-size="10px" fill="#FFFFFF" font-family="sans-serif"> Portman</text></g><g class="node" transform="translate(108.90712245752081,7.991537336330689)"><circle class="outline" cx="0" cy="0" r="25" fill="#F79767" stroke="#f36924" stroke-width="2px"/><text text-anchor="middle" pointer-events="none" font-family="sans-serif" dy="1.5625" font-size="25" fill="#FFFFFF"/><text text-anchor="middle" pointer-events="none" y="5" font-size="10px" fill="#FFFFFF" font-family="sans-serif"> Ben Miles</text></g><g class="node" transform="translate(-318.1515415285413,62.79212952365744)"><circle class="outline" cx="0" cy="0" r="25" fill="#57C7E3" stroke="#23b3d7" stroke-width="2px"/><text text-anchor="middle" pointer-events="none" font-family="sans-serif" dy="1.5625" font-size="25" fill="#FFFFFF"/><text text-anchor="middle" pointer-events="none" font-family="sans-serif" dy="1.5625" font-size="25" fill="#FFFFFF"/><text text-anchor="middle" pointer-events="none" font-family="sans-serif" dy="1.5625" font-size="25" fill="#FFFFFF"/><text text-anchor="middle" pointer-events="none" y="-5" font-size="10px" fill="#FFFFFF" font-family="sans-serif"> The</text><text text-anchor="middle" pointer-events="none" y="5" font-size="10px" fill="#FFFFFF" font-family="sans-serif"> Matrix</text><text text-anchor="middle" pointer-events="none" y="15" font-size="10px" fill="#FFFFFF" font-family="sans-serif"> Revol…</text></g><g class="node" transform="translate(-245.7788045785738,-53.07640090410799)"><circle class="outline" cx="0" cy="0" r="25" fill="#F79767" stroke="#f36924" stroke-width="2px"/><text text-anchor="middle" pointer-events="none" font-family="sans-serif" dy="1.5625" font-size="25" fill="#FFFFFF"/><text text-anchor="middle" pointer-events="none" font-family="sans-serif" dy="1.5625" font-size="25" fill="#FFFFFF"/><text text-anchor="middle" pointer-events="none" y="0" font-size="10px" fill="#FFFFFF" font-family="sans-serif"> Laurence</text><text text-anchor="middle" pointer-events="none" y="10" font-size="10px" fill="#FFFFFF" font-family="sans-serif"> Fishbur…</text></g><g class="node" transform="translate(-341.3447288451666,-34.9464667380732)"><circle class="outline" cx="0" cy="0" r="25" fill="#F79767" stroke="#f36924" stroke-width="2px"/><text text-anchor="middle" pointer-events="none" font-family="sans-serif" dy="1.5625" font-size="25" fill="#FFFFFF"/><text text-anchor="middle" pointer-events="none" y="5" font-size="10px" fill="#FFFFFF" font-family="sans-serif"> Carrie-A…</text></g><g class="node" transform="translate(-105.49009478752055,-69.74526669724654)"><circle class="outline" cx="0" cy="0" r="25" fill="#F79767" stroke="#f36924" stroke-width="2px"/><text text-anchor="middle" pointer-events="none" font-family="sans-serif" dy="1.5625" font-size="25" fill="#FFFFFF"/><text text-anchor="middle" pointer-events="none" font-family="sans-serif" dy="1.5625" font-size="25" fill="#FFFFFF"/><text text-anchor="middle" pointer-events="none" y="0" font-size="10px" fill="#FFFFFF" font-family="sans-serif"> Keanu</text><text text-anchor="middle" pointer-events="none" y="10" font-size="10px" fill="#FFFFFF" font-family="sans-serif"> Reeves</text></g><g class="node" transform="translate(-224.8428593501875,59.60635574353212)"><circle class="outline" cx="0" cy="0" r="25" fill="#57C7E3" stroke="#23b3d7" stroke-width="2px"/><text text-anchor="middle" pointer-events="none" font-family="sans-serif" dy="1.5625" font-size="25" fill="#FFFFFF"/><text text-anchor="middle" pointer-events="none" font-family="sans-serif" dy="1.5625" font-size="25" fill="#FFFFFF"/><text text-anchor="middle" pointer-events="none" font-family="sans-serif" dy="1.5625" font-size="25" fill="#FFFFFF"/><text text-anchor="middle" pointer-events="none" y="-5" font-size="10px" fill="#FFFFFF" font-family="sans-serif"> The</text><text text-anchor="middle" pointer-events="none" y="5" font-size="10px" fill="#FFFFFF" font-family="sans-serif"> Matrix</text><text text-anchor="middle" pointer-events="none" y="15" font-size="10px" fill="#FFFFFF" font-family="sans-serif"> Reloa…</text></g><g class="node" transform="translate(-125.15397240767908,51.92731070809349)"><circle class="outline" cx="0" cy="0" r="25" fill="#57C7E3" stroke="#23b3d7" stroke-width="2px"/><text text-anchor="middle" pointer-events="none" font-family="sans-serif" dy="1.5625" font-size="25" fill="#FFFFFF"/><text text-anchor="middle" pointer-events="none" font-family="sans-serif" dy="1.5625" font-size="25" fill="#FFFFFF"/><text text-anchor="middle" pointer-events="none" y="0" font-size="10px" fill="#FFFFFF" font-family="sans-serif"> The</text><text text-anchor="middle" pointer-events="none" y="10" font-size="10px" fill="#FFFFFF" font-family="sans-serif"> Matrix</text></g><g class="node" transform="translate(-21.048079899128677,-27.055161629368985)"><circle class="outline" cx="0" cy="0" r="25" fill="#F79767" stroke="#f36924" stroke-width="2px"/><text text-anchor="middle" pointer-events="none" font-family="sans-serif" dy="1.5625" font-size="25" fill="#FFFFFF"/><text text-anchor="middle" pointer-events="none" font-family="sans-serif" dy="1.5625" font-size="25" fill="#FFFFFF"/><text text-anchor="middle" pointer-events="none" y="0" font-size="10px" fill="#FFFFFF" font-family="sans-serif"> Emil</text><text text-anchor="middle" pointer-events="none" y="10" font-size="10px" fill="#FFFFFF" font-family="sans-serif"> Eifrem</text></g></g></svg>