<svg xmlns="http://www.w3.org/2000/svg" width="261.66595458984375" height="286.05316162109375" viewBox="-32.28249740600586 -43.02659225463867 261.66595458984375 286.05316162109375"><title>Neo4j Graph Visualization</title><desc>Created using Neo4j (http://www.neo4j.com/)</desc><g class="layer relationships"><g class="relationship" transform="translate(94.23789040758192 214.02657697526433) rotate(272.89286925620115)"><path class="outline" fill="#A5ABB6" stroke="none" d="M 25 0.5 L 30.140722740428288 0.5 L 30.140722740428288 -0.5 L 25 -0.5 Z M 77.03134774042829 0.5 L 82.17207048085658 0.5 L 82.17207048085658 3.5 L 89.17207048085658 0 L 82.17207048085658 -3.5 L 82.17207048085658 -0.5 L 77.03134774042829 -0.5 Z"/><text text-anchor="middle" pointer-events="none" font-size="8px" fill="#000000" x="53.58603524042829" y="3" font-family="sans-serif">DIRECTED</text></g><g class="relationship" transform="translate(194.50362414974933 165.1450813276721) rotate(214.5800291502975)"><path class="outline" fill="#A5ABB6" stroke="none" d="M 25 0.5 L 36.00408260592547 0.5 L 36.00408260592547 -0.5 L 25 -0.5 Z M 71.77752010592548 0.5 L 82.78160271185094 0.5 L 82.78160271185094 3.5 L 89.78160271185094 0 L 82.78160271185094 -3.5 L 82.78160271185094 -0.5 L 71.77752010592548 -0.5 Z"/><text text-anchor="middle" pointer-events="none" font-size="8px" fill="#000000" x="53.89080135592547" y="3" transform="rotate(180 53.89080135592547 0)" font-family="sans-serif">WROTE</text></g><g class="relationship" transform="translate(200.38344136357995 44.35771160051613) rotate(511.0005063166858)"><path class="outline" fill="#A5ABB6" stroke="none" d="M 25 0.5 L 35.99990816640068 0.5 L 35.99990816640068 -0.5 L 25 -0.5 Z M 71.77334566640067 0.5 L 82.77325383280136 0.5 L 82.77325383280136 3.5 L 89.77325383280136 0 L 82.77325383280136 -3.5 L 82.77325383280136 -0.5 L 71.77334566640067 -0.5 Z"/><text text-anchor="middle" pointer-events="none" font-size="8px" fill="#000000" x="53.88662691640068" y="3" transform="rotate(180 53.88662691640068 0)" font-family="sans-serif">WROTE</text></g><g class="relationship" transform="translate(105.30108328404363 -14.02659237997987) rotate(452.6617576864102)"><path class="outline" fill="#A5ABB6" stroke="none" d="M 25 0.5 L 30.793625688738388 0.5 L 30.793625688738388 -0.5 L 25 -0.5 Z M 76.35612568873839 0.5 L 82.14975137747678 0.5 L 82.14975137747678 3.5 L 89.14975137747678 0 L 82.14975137747678 -3.5 L 82.14975137747678 -0.5 L 76.35612568873839 -0.5 Z"/><text text-anchor="middle" pointer-events="none" font-size="8px" fill="#000000" x="53.57487568873839" y="3" transform="rotate(180 53.57487568873839 0)" font-family="sans-serif">ACTED_IN</text></g><g class="relationship" transform="translate(2.0218904050419444 40.280665314334904) rotate(391.36302345152103)"><path class="outline" fill="#A5ABB6" stroke="none" d="M 25 0.5 L 31.090583571689955 0.5 L 31.090583571689955 -0.5 L 25 -0.5 Z M 76.65308357168996 0.5 L 82.74366714337991 0.5 L 82.74366714337991 3.5 L 89.74366714337991 0 L 82.74366714337991 -3.5 L 82.74366714337991 -0.5 L 76.65308357168996 -0.5 Z"/><text text-anchor="middle" pointer-events="none" font-size="8px" fill="#000000" x="53.871833571689955" y="3" font-family="sans-serif">ACTED_IN</text></g><g class="relationship" transform="translate(-3.2824970446875934 150.02604018195248) rotate(334.156251147165)"><path class="outline" fill="#A5ABB6" stroke="none" d="M 25 0.5 L 31.098795919631378 0.5 L 31.098795919631378 -0.5 L 25 -0.5 Z M 76.66129591963139 0.5 L 82.76009183926276 0.5 L 82.76009183926276 3.5 L 89.76009183926276 0 L 82.76009183926276 -3.5 L 82.76009183926276 -0.5 L 76.66129591963139 -0.5 Z"/><text text-anchor="middle" pointer-events="none" font-size="8px" fill="#000000" x="53.88004591963138" y="3" font-family="sans-serif">ACTED_IN</text></g></g><g class="layer nodes"><g class="node" transform="translate(100,100.00000213005272)"><circle class="outline" cx="0" cy="0" r="25" fill="#57C7E3" stroke="#23b3d7" stroke-width="2px"/><text text-anchor="middle" pointer-events="none" font-family="sans-serif" dy="1.5625" font-size="25" fill="#FFFFFF"/><text text-anchor="middle" pointer-events="none" font-family="sans-serif" dy="1.5625" font-size="25" fill="#FFFFFF"/><text text-anchor="middle" pointer-events="none" font-family="sans-serif" dy="1.5625" font-size="25" fill="#FFFFFF"/><text text-anchor="middle" pointer-events="none" y="-5" font-size="10px" fill="#FFFFFF" font-family="sans-serif"> Captain</text><text text-anchor="middle" pointer-events="none" y="5" font-size="10px" fill="#FFFFFF" font-family="sans-serif"> America:</text><text text-anchor="middle" pointer-events="none" y="15" font-size="10px" fill="#FFFFFF" font-family="sans-serif"> The Fi…</text></g><g class="node" transform="translate(94.23789040758192,214.02657697526433)"><circle class="outline" cx="0" cy="0" r="25" fill="#F79767" stroke="#f36924" stroke-width="2px"/><text text-anchor="middle" pointer-events="none" font-family="sans-serif" dy="1.5625" font-size="25" fill="#FFFFFF"/><text text-anchor="middle" pointer-events="none" font-family="sans-serif" dy="1.5625" font-size="25" fill="#FFFFFF"/><text text-anchor="middle" pointer-events="none" y="0" font-size="10px" fill="#FFFFFF" font-family="sans-serif"> Joe</text><text text-anchor="middle" pointer-events="none" y="10" font-size="10px" fill="#FFFFFF" font-family="sans-serif"> Johnston</text></g><g class="node" transform="translate(194.50362414974933,165.1450813276721)"><circle class="outline" cx="0" cy="0" r="25" fill="#F79767" stroke="#f36924" stroke-width="2px"/><text text-anchor="middle" pointer-events="none" font-family="sans-serif" dy="1.5625" font-size="25" fill="#FFFFFF"/><text text-anchor="middle" pointer-events="none" y="5" font-size="10px" fill="#FFFFFF" font-family="sans-serif"> Christop…</text></g><g class="node" transform="translate(200.38344136357995,44.35771160051613)"><circle class="outline" cx="0" cy="0" r="25" fill="#F79767" stroke="#f36924" stroke-width="2px"/><text text-anchor="middle" pointer-events="none" font-family="sans-serif" dy="1.5625" font-size="25" fill="#FFFFFF"/><text text-anchor="middle" pointer-events="none" font-family="sans-serif" dy="1.5625" font-size="25" fill="#FFFFFF"/><text text-anchor="middle" pointer-events="none" y="0" font-size="10px" fill="#FFFFFF" font-family="sans-serif"> Stephen</text><text text-anchor="middle" pointer-events="none" y="10" font-size="10px" fill="#FFFFFF" font-family="sans-serif"> McFeely</text></g><g class="node" transform="translate(105.30108328404363,-14.02659237997987)"><circle class="outline" cx="0" cy="0" r="25" fill="#F79767" stroke="#f36924" stroke-width="2px"/><text text-anchor="middle" pointer-events="none" font-family="sans-serif" dy="1.5625" font-size="25" fill="#FFFFFF"/><text text-anchor="middle" pointer-events="none" font-family="sans-serif" dy="1.5625" font-size="25" fill="#FFFFFF"/><text text-anchor="middle" pointer-events="none" y="0" font-size="10px" fill="#FFFFFF" font-family="sans-serif"> Chris</text><text text-anchor="middle" pointer-events="none" y="10" font-size="10px" fill="#FFFFFF" font-family="sans-serif"> Evans</text></g><g class="node" transform="translate(2.0218904050419444,40.280665314334904)"><circle class="outline" cx="0" cy="0" r="25" fill="#F79767" stroke="#f36924" stroke-width="2px"/><text text-anchor="middle" pointer-events="none" font-family="sans-serif" dy="1.5625" font-size="25" fill="#FFFFFF"/><text text-anchor="middle" pointer-events="none" font-family="sans-serif" dy="1.5625" font-size="25" fill="#FFFFFF"/><text text-anchor="middle" pointer-events="none" font-family="sans-serif" dy="1.5625" font-size="25" fill="#FFFFFF"/><text text-anchor="middle" pointer-events="none" y="-5" font-size="10px" fill="#FFFFFF" font-family="sans-serif"> Samuel</text><text text-anchor="middle" pointer-events="none" y="5" font-size="10px" fill="#FFFFFF" font-family="sans-serif"> L.</text><text text-anchor="middle" pointer-events="none" y="15" font-size="10px" fill="#FFFFFF" font-family="sans-serif"> Jackson</text></g><g class="node" transform="translate(-3.2824970446875934,150.02604018195248)"><circle class="outline" cx="0" cy="0" r="25" fill="#F79767" stroke="#f36924" stroke-width="2px"/><text text-anchor="middle" pointer-events="none" font-family="sans-serif" dy="1.5625" font-size="25" fill="#FFFFFF"/><text text-anchor="middle" pointer-events="none" font-family="sans-serif" dy="1.5625" font-size="25" fill="#FFFFFF"/><text text-anchor="middle" pointer-events="none" y="0" font-size="10px" fill="#FFFFFF" font-family="sans-serif"> Hugo</text><text text-anchor="middle" pointer-events="none" y="10" font-size="10px" fill="#FFFFFF" font-family="sans-serif"> Weaving</text></g></g></svg>