<svg xmlns="http://www.w3.org/2000/svg" width="379.7965087890625" height="371.18121337890625" viewBox="-92.30064392089844 -82.75457763671875 379.7965087890625 371.18121337890625"><title>Neo4j Graph Visualization</title><desc>Created using Neo4j (http://www.neo4j.com/)</desc><g class="layer relationships"><g class="relationship" transform="translate(151.91243350566094 259.42662793411597) rotate(305.7670678668311)"><path class="outline" fill="#A5ABB6" stroke="none" d="M 24.018736134675446,6.953439040707552 L 24.277555179777966,5.987513214418485 A 100.13726245285729 100.13726245285729 0 0 0 25.489337271586848,6.30410048220368 L 25.242619436984057,7.273187841572749 A 101.13726245285729 101.13726245285729 0 0 1 24.018736134675446,6.953439040707552 Z M 71.93487998949124,8.035432959945794 L 71.7199256429405,7.058808861892231 A 100.13726245285729 100.13726245285729 0 0 0 72.94139576206979,6.781944121943777 L 72.25993884849264,3.8603663846692897 L 79.87198663463978,5.678807613142859 L 73.85000498017264,10.677381104976428 L 73.16854806659549,7.75580336770194 A 101.13726245285729 101.13726245285729 0 0 1 71.93487998949124,8.035432959945794"/><text text-anchor="middle" pointer-events="none" font-size="8px" fill="#000000" x="48.552314397741235" y="12.886200384000574" font-family="sans-serif">DIRECTED</text></g><g class="relationship" transform="translate(151.91243350566094 259.42662793411597) rotate(305.7670678668311)"><path class="outline" fill="#A5ABB6" stroke="none" d="M 24.018736134675446,-6.953439040707552 L 24.277555179777966,-5.987513214418485 A 100.13726245285729 100.13726245285729 0 0 1 30.88428827841906,-7.520008000784898 L 30.691446002970604,-8.50123776837242 A 101.13726245285729 101.13726245285729 0 0 0 24.018736134675446,-6.953439040707552 Z M 66.44887205960997,-9.084973126968052 L 66.28816090490396,-8.097971645331342 A 100.13726245285729 100.13726245285729 0 0 1 72.94139576206979,-6.781944121943777 L 72.25993884849264,-3.8603663846692897 L 79.87198663463978,-5.678807613142859 L 73.85000498017264,-10.677381104976428 L 73.16854806659549,-7.75580336770194 A 101.13726245285729 101.13726245285729 0 0 0 66.44887205960997,-9.084973126968052"/><text text-anchor="middle" pointer-events="none" font-size="8px" fill="#000000" x="48.55231439774124" y="-6.886200384000574" font-family="sans-serif">WROTE</text></g><g class="relationship" transform="translate(258.49585699413126 81.11450656342446) rotate(475.972371638018)"><path class="outline" fill="#A5ABB6" stroke="none" d="M 24.018736134675446,6.953439040707552 L 24.277555179777966,5.987513214418485 A 100.2627058250019 100.2627058250019 0 0 0 25.519931277789055,6.311894836162097 L 25.27350344123999,7.281055979302778 A 101.2627058250019 101.2627058250019 0 0 1 24.018736134675446,6.953439040707552 Z M 71.96653843801214,8.042883780824397 L 71.7518583610766,7.066199356577258 A 100.2627058250019 100.2627058250019 0 0 0 73.00415537714244,6.782519979486282 L 72.32264467297003,3.860954789370129 L 79.93472593810885,5.6792558681033665 L 73.91283631603898,10.677940232974485 L 73.23132561186657,7.756375042858333 A 101.2627058250019 101.2627058250019 0 0 1 71.96653843801214,8.042883780824397"/><text text-anchor="middle" pointer-events="none" font-size="8px" fill="#000000" x="48.58366143170939" y="12.890473187802769" transform="rotate(180 48.58366143170939 9.890473187802769)" font-family="sans-serif">DIRECTED</text></g><g class="relationship" transform="translate(258.49585699413126 81.11450656342446) rotate(475.972371638018)"><path class="outline" fill="#A5ABB6" stroke="none" d="M 24.018736134675446,-6.953439040707552 L 24.277555179777966,-5.987513214418485 A 100.2627058250019 100.2627058250019 0 0 1 30.915239380075835,-7.526381361675789 L 30.72262325804107,-8.507655548400521 A 101.2627058250019 101.2627058250019 0 0 0 24.018736134675446,-6.953439040707552 Z M 66.48030405246858,-9.091065801107689 L 66.31980220769509,-8.104030260803128 A 100.2627058250019 100.2627058250019 0 0 1 73.00415537714244,-6.782519979486282 L 72.32264467297003,-3.860954789370129 L 79.93472593810885,-5.6792558681033665 L 73.91283631603898,-10.677940232974485 L 73.23132561186657,-7.756375042858333 A 101.2627058250019 101.2627058250019 0 0 0 66.48030405246858,-9.091065801107689"/><text text-anchor="middle" pointer-events="none" font-size="8px" fill="#000000" x="48.583661431709366" y="-6.890473187802769" transform="rotate(180 48.583661431709366 -9.890473187802769)" font-family="sans-serif">WROTE</text></g><g class="relationship" transform="translate(143.40538169252264 -53.75457467153066) rotate(534.8417771989889)"><path class="outline" fill="#A5ABB6" stroke="none" d="M 21.40063509461097,12.933012701892217 L 21.90063509461097,12.06698729810778 A 56.71218817589264 56.71218817589264 0 0 0 23.855711793577957,13.14500784809674 L 23.390185453682612,14.03004187391928 A 57.71218817589264 57.71218817589264 0 0 1 21.40063509461097,12.933012701892217 Z M 73.83397220503322,15.62925958188579 L 73.42544077055325,14.716515331264773 A 56.71218817589264 56.71218817589264 0 0 0 75.44487567477346,13.76449859156995 L 74.11245592679467,11.076626270347058 L 81.93864771562333,11.103497899823257 L 77.22143533874518,17.348328353200472 L 75.88901559076639,14.660456031977581 A 57.71218817589264 57.71218817589264 0 0 1 73.83397220503322,15.62925958188579"/><text text-anchor="middle" pointer-events="none" font-size="8px" fill="#000000" x="48.44384388428922" y="23.136250105145187" transform="rotate(180 48.44384388428922 20.136250105145187)" font-family="sans-serif">PRODUCED</text></g><g class="relationship" transform="translate(143.40538169252264 -53.75457467153066) rotate(534.8417771989889)"><path class="outline" fill="#A5ABB6" stroke="none" d="M 25 0.5 L 25.223479362907064 0.5 L 25.223479362907064 -0.5 L 25 -0.5 Z M 72.11410436290706 0.5 L 72.33758372581413 0.5 L 72.33758372581413 3.5 L 79.33758372581413 0 L 72.33758372581413 -3.5 L 72.33758372581413 -0.5 L 72.11410436290706 -0.5 Z"/><text text-anchor="middle" pointer-events="none" font-size="8px" fill="#000000" x="48.668791862907064" y="3" transform="rotate(180 48.668791862907064 0)" font-family="sans-serif">DIRECTED</text></g><g class="relationship" transform="translate(143.40538169252264 -53.75457467153066) rotate(534.8417771989889)"><path class="outline" fill="#A5ABB6" stroke="none" d="M 21.40063509461097,-12.933012701892217 L 21.90063509461097,-12.06698729810778 A 56.71218817589264 56.71218817589264 0 0 1 31.11258560623774,-16.336066677616564 L 30.77501895271797,-17.277368305380733 A 57.71218817589264 57.71218817589264 0 0 0 21.40063509461097,-12.933012701892217 Z M 66.25827544205167,-18.402292815782225 L 65.98101085089242,-17.441499213342404 A 56.71218817589264 56.71218817589264 0 0 1 75.44487567477346,-13.76449859156995 L 74.11245592679467,-11.076626270347058 L 81.93864771562333,-11.103497899823257 L 77.22143533874518,-17.348328353200472 L 75.88901559076639,-14.660456031977581 A 57.71218817589264 57.71218817589264 0 0 0 66.25827544205167,-18.402292815782225"/><text text-anchor="middle" pointer-events="none" font-size="8px" fill="#000000" x="48.44384388428921" y="-17.136250105145187" transform="rotate(180 48.44384388428921 -20.136250105145187)" font-family="sans-serif">WROTE</text></g><g class="relationship" transform="translate(-63.3006457206196 98.70511494836465) rotate(432.60636079666335)"><path class="outline" fill="#A5ABB6" stroke="none" d="M 21.40063509461097,12.933012701892217 L 21.90063509461097,12.06698729810778 A 57.60924535024887 57.60924535024887 0 0 0 31.53362837855805,16.501544583842957 L 31.200841006069155,17.444546473932228 A 58.60924535024887 58.60924535024887 0 0 1 21.40063509461097,12.933012701892217 Z M 66.69745384135126,18.561139734027364 L 66.42459252099052,17.59908635720725 A 57.60924535024887 57.60924535024887 0 0 0 76.31725496973694,13.778734592749123 L 74.98351086090749,11.091519184159267 L 82.8097149412515,11.11453424024539 L 78.0955804481762,17.36168847086893 L 76.76183633934674,14.674473062279075 A 58.60924535024887 58.60924535024887 0 0 1 66.69745384135126,18.561139734027364"/><text text-anchor="middle" pointer-events="none" font-size="8px" fill="#000000" x="48.87825770549631" y="23.256434426236673" font-family="sans-serif">WROTE</text></g><g class="relationship" transform="translate(-63.3006457206196 98.70511494836465) rotate(432.60636079666335)"><path class="outline" fill="#A5ABB6" stroke="none" d="M 25 0.5 L 25.65627583975016 0.5 L 25.65627583975016 -0.5 L 25 -0.5 Z M 72.54690083975015 0.5 L 73.20317667950032 0.5 L 73.20317667950032 3.5 L 80.20317667950032 0 L 73.20317667950032 -3.5 L 73.20317667950032 -0.5 L 72.54690083975015 -0.5 Z"/><text text-anchor="middle" pointer-events="none" font-size="8px" fill="#000000" x="49.10158833975016" y="3" font-family="sans-serif">DIRECTED</text></g><g class="relationship" transform="translate(-63.3006457206196 98.70511494836465) rotate(432.60636079666335)"><path class="outline" fill="#A5ABB6" stroke="none" d="M 21.40063509461097,-12.933012701892217 L 21.90063509461097,-12.06698729810778 A 57.60924535024887 57.60924535024887 0 0 1 24.256086659036043,-13.354687318940393 L 23.796973352657954,-14.243065038104142 A 58.60924535024887 58.60924535024887 0 0 0 21.40063509461097,-12.933012701892217 Z M 74.28789833978817,-15.83132436859897 L 73.88552768258003,-14.915847523333134 A 57.60924535024887 57.60924535024887 0 0 1 76.31725496973694,-13.778734592749123 L 74.98351086090749,-11.091519184159267 L 82.8097149412515,-11.11453424024539 L 78.0955804481762,-17.36168847086893 L 76.76183633934674,-14.674473062279075 A 58.60924535024887 58.60924535024887 0 0 0 74.28789833978817,-15.83132436859897"/><text text-anchor="middle" pointer-events="none" font-size="8px" fill="#000000" x="48.878257705496296" y="-17.256434426236673" font-family="sans-serif">PRODUCED</text></g></g><g class="layer nodes"><g class="node" transform="translate(151.91243350566094,259.42662793411597)"><circle class="outline" cx="0" cy="0" r="25" fill="#F79767" stroke="#f36924" stroke-width="2px"/><text text-anchor="middle" pointer-events="none" font-family="sans-serif" dy="1.5625" font-size="25" fill="#FFFFFF"/><text text-anchor="middle" pointer-events="none" font-family="sans-serif" dy="1.5625" font-size="25" fill="#FFFFFF"/><text text-anchor="middle" pointer-events="none" y="0" font-size="10px" fill="#FFFFFF" font-family="sans-serif"> Lilly</text><text text-anchor="middle" pointer-events="none" y="10" font-size="10px" fill="#FFFFFF" font-family="sans-serif"> Wacho…</text></g><g class="node" transform="translate(212.8272316296718,174.86377323047665)"><circle class="outline" cx="0" cy="0" r="25" fill="#57C7E3" stroke="#23b3d7" stroke-width="2px"/><text text-anchor="middle" pointer-events="none" font-family="sans-serif" dy="1.5625" font-size="25" fill="#FFFFFF"/><text text-anchor="middle" pointer-events="none" font-family="sans-serif" dy="1.5625" font-size="25" fill="#FFFFFF"/><text text-anchor="middle" pointer-events="none" y="0" font-size="10px" fill="#FFFFFF" font-family="sans-serif"> Speed</text><text text-anchor="middle" pointer-events="none" y="10" font-size="10px" fill="#FFFFFF" font-family="sans-serif"> Racer</text></g><g class="node" transform="translate(258.49585699413126,81.11450656342446)"><circle class="outline" cx="0" cy="0" r="25" fill="#F79767" stroke="#f36924" stroke-width="2px"/><text text-anchor="middle" pointer-events="none" font-family="sans-serif" dy="1.5625" font-size="25" fill="#FFFFFF"/><text text-anchor="middle" pointer-events="none" font-family="sans-serif" dy="1.5625" font-size="25" fill="#FFFFFF"/><text text-anchor="middle" pointer-events="none" y="0" font-size="10px" fill="#FFFFFF" font-family="sans-serif"> Lana</text><text text-anchor="middle" pointer-events="none" y="10" font-size="10px" fill="#FFFFFF" font-family="sans-serif"> Wacho…</text></g><g class="node" transform="translate(143.40538169252264,-53.75457467153066)"><circle class="outline" cx="0" cy="0" r="25" fill="#F79767" stroke="#f36924" stroke-width="2px"/><text text-anchor="middle" pointer-events="none" font-family="sans-serif" dy="1.5625" font-size="25" fill="#FFFFFF"/><text text-anchor="middle" pointer-events="none" font-family="sans-serif" dy="1.5625" font-size="25" fill="#FFFFFF"/><text text-anchor="middle" pointer-events="none" y="0" font-size="10px" fill="#FFFFFF" font-family="sans-serif"> Cameron</text><text text-anchor="middle" pointer-events="none" y="10" font-size="10px" fill="#FFFFFF" font-family="sans-serif"> Crowe</text></g><g class="node" transform="translate(39.49034237355047,-44.373957363605676)"><circle class="outline" cx="0" cy="0" r="25" fill="#57C7E3" stroke="#23b3d7" stroke-width="2px"/><text text-anchor="middle" pointer-events="none" font-family="sans-serif" dy="1.5625" font-size="25" fill="#FFFFFF"/><text text-anchor="middle" pointer-events="none" font-family="sans-serif" dy="1.5625" font-size="25" fill="#FFFFFF"/><text text-anchor="middle" pointer-events="none" y="0" font-size="10px" fill="#FFFFFF" font-family="sans-serif"> Jerry</text><text text-anchor="middle" pointer-events="none" y="10" font-size="10px" fill="#FFFFFF" font-family="sans-serif"> Maguire</text></g><g class="node" transform="translate(-63.3006457206196,98.70511494836465)"><circle class="outline" cx="0" cy="0" r="25" fill="#F79767" stroke="#f36924" stroke-width="2px"/><text text-anchor="middle" pointer-events="none" font-family="sans-serif" dy="1.5625" font-size="25" fill="#FFFFFF"/><text text-anchor="middle" pointer-events="none" font-family="sans-serif" dy="1.5625" font-size="25" fill="#FFFFFF"/><text text-anchor="middle" pointer-events="none" y="0" font-size="10px" fill="#FFFFFF" font-family="sans-serif"> Nancy</text><text text-anchor="middle" pointer-events="none" y="10" font-size="10px" fill="#FFFFFF" font-family="sans-serif"> Meyers</text></g><g class="node" transform="translate(-31.851749495047574,199.09772079984836)"><circle class="outline" cx="0" cy="0" r="25" fill="#57C7E3" stroke="#23b3d7" stroke-width="2px"/><text text-anchor="middle" pointer-events="none" font-family="sans-serif" dy="1.5625" font-size="25" fill="#FFFFFF"/><text text-anchor="middle" pointer-events="none" y="5" font-size="10px" fill="#FFFFFF" font-family="sans-serif"> Somethi…</text></g></g></svg>